<svg xmlns="http://www.w3.org/2000/svg" xmlns:xlink="http://www.w3.org/1999/xlink" viewBox="0 0 68.75235 40.42247"><defs><style>.cls-1{stroke:#fff;stroke-miterlimit:10;fill:url(#radial-gradient);}.cls-2{fill:#fff;}.cls-3{opacity:0.5;}</style><radialGradient id="radial-gradient" cx="103.64904" cy="37.14904" r="0.48625" gradientUnits="userSpaceOnUse"><stop offset="0" stop-color="#d12027"/><stop offset="0.52116" stop-color="#ae1f23"/><stop offset="1" stop-color="#8f191c"/></radialGradient></defs><g id="Layer_2" data-name="Layer 2"><g id="Layer_1-2" data-name="Layer 1"><path class="cls-1" d="M36.55981,5.11622A139.37792,139.37792,0,0,0,5.75431.50353,5.08562,5.08562,0,0,0,.5,5.59338V21.56966a5.10352,5.10352,0,0,0,4.91891,5.08148A112.81876,112.81876,0,0,1,29.79,30.37623,111.75029,111.75029,0,0,1,52.7924,39.332a5.071,5.071,0,0,0,6.76343-1.92331l8.01161-13.87325a5.0815,5.0815,0,0,0-1.99861-7.031A138.92929,138.92929,0,0,0,36.55981,5.11622Z"/><path class="cls-2" d="M22.09591,14.4123q.00435-.4688.01405-.78442a1.25578,1.25578,0,0,1,.09049-.44592.47942.47942,0,0,1,.49962-.26481.57771.57771,0,0,1,.36339.11736.37545.37545,0,0,1,.14318.22756A7.55079,7.55079,0,0,1,23.222,14.358q.74664-.07851,1.49711-.13653c.00357-.10517.00648-.21772.00724-.33791.01124-.23181.00956-.35816.00886-.37617a2.77754,2.77754,0,0,0-.087-.88334c-.2041-.585-.83-.90905-1.86638-.93142a3.37726,3.37726,0,0,0-1.143.14573,1.41484,1.41484,0,0,0-.96016.9337,6.86905,6.86905,0,0,0-.10912,1.81657c.001.03819.002.07637.00242.11446.00031.03082.00062.06164.00142.09257q-.24058.0045-.48059.0113c-.05015.154-.10029.3079-.14843.46221.2128-.00656.42486-.012.63768-.016.00146.05456.00242.109.00338.16348.00046.05438.00241.10906.00287.16344.001.02189.001.04359.00145.06538,0,.02171.001.04362.00095.06534-.1578.00293-.31473.00673-.47229.01114-.04911.154-.09821.30788-.14582.46209.20966-.00634.41758-.01175.62677-.01567.00177.0908.003.18151.0053.2724.01953.62511.03691,1.05331.05827,1.285a1.905,1.905,0,0,0,.26077.81862,1.80946,1.80946,0,0,0,1.668.73578,1.71317,1.71317,0,0,0,1.73895-.91673,3.14868,3.14868,0,0,0,.21853-1.1665c.00637-.11979.01191-.30017.03063-.5386-.47149-.06328-.94672-.12055-1.4212-.17094a6.46862,6.46862,0,0,1-.108,1.34321.4448.4448,0,0,1-.43437.22384.43712.43712,0,0,1-.45951-.31782,5.60725,5.60725,0,0,1-.0791-1.31944c-.00075-.08533-.002-.17074-.00323-.25616.27469.00246.549.007.82486.01406q.08685-.22682.17619-.45317-.49777-.01386-.99677-.01851c.00069-.01443.00038-.02905.00058-.04358.00078-.069.00156-.13794.00185-.207s.00107-.13808.00186-.20707q.58936.00542,1.17732.02366.09291-.22609.18831-.45168-.67674-.02316-1.35618-.02963c.00091-.03985.00031-.08.00121-.11986C22.09529,14.58317,22.0951,14.49764,22.09591,14.4123Z"/><path class="cls-2" d="M28.45422,14.8444q.05649-.46557.10531-.77754a1.20571,1.20571,0,0,1,.14168-.43231.47634.47634,0,0,1,.52586-.20467.57531.57531,0,0,1,.34563.15884.34516.34516,0,0,1,.11447.24247,8.27272,8.27272,0,0,1-.11192,1.0905q.74775.00889,1.49923.03891c.01232-.10494.03047-.216.046-.33493.03566-.22963.05821-.35291.05365-.37232a2.85191,2.85191,0,0,0,.01671-.88753c-.13509-.60507-.7145-.99912-1.73961-1.14255a3.35669,3.35669,0,0,0-1.14836.01147,1.407,1.407,0,0,0-1.05855.81536,7.0125,7.0125,0,0,0-.321,1.79126l-.01143.11384c-.00329.03068-.00607.06147-.00886.09224-.15839-.0156-.3179-.03071-.47656-.04493-.06745.1471-.13491.29424-.20088.44168.21164.01844.421.03774.63221.05864-.00571.05415-.01091.10841-.01612.16265-.00571.05418-.01092.10844-.01613.16271l-.00624.06507-.00626.06512c-.15534-.01527-.31282-.03025-.46843-.04416q-.10039.22067-.19833.44189.31062.02691.62153.05766c-.00851.09045-.01752.18079-.02653.27114-.06.62157-.08913,1.04981-.09289,1.283a1.84638,1.84638,0,0,0,.1619.84344,1.80031,1.80031,0,0,0,1.564.92509,1.70677,1.70677,0,0,0,1.82982-.7077,3.11079,3.11079,0,0,0,.35331-1.133c.021-.118.05081-.29531.09338-.5313q-.69077-.177-1.38818-.33545a6.2663,6.2663,0,0,1-.2637,1.32152.44026.44026,0,0,1-.45694.17148.43226.43226,0,0,1-.41713-.36907,6.05331,6.05331,0,0,1,.0766-1.31948c.0085-.085.01751-.16991.02651-.25481q.40749.05177.81428.10994c.07552-.14329.15053-.28664.228-.42942q-.49209-.07194-.98491-.13458l.00569-.04324c.008-.0686.0179-.13682.02585-.20541.00845-.06852.01741-.137.02636-.20538q.58245.074,1.16249.16068.12-.21339.23939-.42666-.66714-.10185-1.33843-.18727c.005-.03966.0105-.07921.015-.119C28.43219,15.01362,28.4432,14.929,28.45422,14.8444Z"/><path class="cls-2" d="M34.70645,16.01475c.07561-.30329.13963-.55679.19605-.75981a1.186,1.186,0,0,1,.19072-.41287.47838.47838,0,0,1,.54592-.14192.57457.57457,0,0,1,.32516.19827.37788.37788,0,0,1,.08533.25418,8.2869,8.2869,0,0,1-.23883,1.06986c.49559.06444.98988.13563,1.48586.21422.02879-.10181.05388-.21131.08484-.32722.06048-.22417.093-.34534.09647-.3636a2.83141,2.83141,0,0,0,.12067-.87944c-.06506-.617-.59272-1.076-1.59609-1.33846a3.36261,3.36261,0,0,0-1.14133-.12263,1.39716,1.39716,0,0,0-1.14607.68619A6.9213,6.9213,0,0,0,33.187,15.833c-.00766.03735-.01683.07442-.02449.11178l-.0194.09058c-.15538-.034-.31239-.06767-.468-.10031q-.12581.20742-.25066.41529.31123.06429.62075.13207c-.01174.05321-.024.10632-.0352.15963-.01174.05323-.023.10655-.03471.15978-.00509.02119-.00918.04258-.01427.06377s-.00919.04263-.01378.06393q-.2301-.05037-.45958-.09851c-.08288.13849-.16627.277-.24817.41581.203.04194.40677.0853.6098.12975-.01955.08868-.0386.17745-.05865.266q-.19326.91684-.24173,1.26343a1.93217,1.93217,0,0,0,.06264.8567,1.79738,1.79738,0,0,0,1.44343,1.101,1.71,1.71,0,0,0,1.90218-.4885,3.1682,3.1682,0,0,0,.48307-1.084c.03339-.115.08795-.28665.15523-.51665q-.6662-.25677-1.341-.49573a6.034,6.034,0,0,1-.4169,1.28147.43812.43812,0,0,1-.47391.11693.43155.43155,0,0,1-.37055-.41513,5.94139,5.94139,0,0,1,.22988-1.30159c.01853-.08334.03756-.16658.0561-.24993q.3992.09915.7967.20449.13837-.20012.27568-.40008-.47892-.1286-.96206-.24856l.01068-.0423c.01694-.06692.03288-.134.04982-.20093.01594-.06713.03388-.13386.04983-.201q.56955.14148,1.13668.2956.14268-.19833.28728-.39587-.65077-.17923-1.30771-.34244c.01-.03872.01949-.07753.029-.11634C34.66544,16.18043,34.68644,16.09768,34.70645,16.01475Z"/><path class="cls-2" d="M40.50751,21.4491a.44294.44294,0,0,1-.48579.06008.43308.43308,0,0,1-.3208-.45624,5.68993,5.68993,0,0,1,.37979-1.26594c.02884-.08043.05667-.16106.08551-.24149q.38493.14537.76916.29712.15988-.18279.32216-.36459-.46275-.18469-.92974-.36072c.00568-.0135.01037-.02718.01556-.04078.02425-.06458.049-.12907.07276-.19375.02475-.06451.04851-.1292.07326-.19372q.55065.20781,1.09789.428c.11087-.11992.22071-.23984.33251-.3592q-.62918-.25563-1.26351-.495c.01388-.03743.02827-.07477.04215-.1122.03077-.07973.05955-.15985.09032-.23957q.16614-.43852.28278-.73188a1.24372,1.24372,0,0,1,.2391-.38732.476.476,0,0,1,.5598-.07655.5782.5782,0,0,1,.30146.23557.35739.35739,0,0,1,.0553.26249,7.07208,7.07208,0,0,1-.36244,1.03468q.7305.1842,1.4565.38926c.03849-.09845.07723-.2036.12334-.31485.08921-.21483.1323-.33191.13831-.34983a2.85778,2.85778,0,0,0,.22138-.85972c.008-.62022-.46868-1.14044-1.43484-1.519a3.381,3.381,0,0,0-1.1229-.25675,1.39849,1.39849,0,0,0-1.22172.54628,6.9768,6.9768,0,0,0-.72773,1.668l-.03725.10817c-.00973.02926-.02047.05833-.0302.08758q-.22707-.07839-.454-.15463c-.09939.1275-.19931.255-.29775.383q.30125.1002.60229.20417c-.01812.05144-.03524.10306-.05335.1545-.01712.05164-.03624.1029-.05336.15455-.00755.0205-.01459.04111-.02164.0617-.00655.02072-.01459.04114-.02114.06186q-.22343-.0771-.44625-.152c-.09842.1278-.19736.25566-.29533.38384q.2954.09835.5921.2007-.04479.12868-.08909.25746c-.1971.59229-.32807,1.00107-.38775,1.22647a1.87841,1.87841,0,0,0-.038.85822c.10368.55293.53616.96345,1.30979,1.26422a1.71847,1.71847,0,0,0,1.95256-.25978,3.1058,3.1058,0,0,0,.60731-1.01962c.04943-.10969.12231-.27435.21469-.49493q-.635-.33453-1.27906-.65168A6.29717,6.29717,0,0,1,40.50751,21.4491Z"/><g class="cls-3"><path class="cls-2" d="M45.93944,20.389l1.15.44015-.31116.371-1.00755-.38562-.074.19337-.074.19337-.01558.04071.86.32914-.30608.37291-.7175-.27461-.08644.24112a5.93463,5.93463,0,0,0-.38989,1.2626.47954.47954,0,0,0,.77673.379,6.48306,6.48306,0,0,0,.54211-1.23352l1.21285.58087-.19281.50377a3.22455,3.22455,0,0,1-.55806,1.04656,1.63161,1.63161,0,0,1-1.91277.318q-1.15038-.44028-1.2707-1.26809a1.87909,1.87909,0,0,1,.07018-.85407q.0995-.33509.42909-1.2126l.09738-.25443-.54448-.20839.301-.37486.40709.1558.02337-.06106.02337-.06106.05842-.15266.05843-.15266-.54448-.20839.301-.37486.40709.15581.0331-.08651.0409-.10686a7.9964,7.9964,0,0,1,.76558-1.64972,1.34682,1.34682,0,0,1,1.11473-.56514,2.68948,2.68948,0,0,1,.97243.203q1.24635.477,1.22905,1.39216a3.1719,3.1719,0,0,1-.20161.86212c-.0029.01847-.04479.13662-.1242.355-.03921.11334-.07651.2195-.11057.31939l-1.32386-.29082a8.6248,8.6248,0,0,0,.35075-1.03839.369.369,0,0,0-.04228-.25538.47109.47109,0,0,0-.26128-.21668.41817.41817,0,0,0-.50446.09863,1.366,1.366,0,0,0-.23095.39q-.11834.29287-.28553.73081l-.09154.23917Z"/></g></g></g></svg>