<svg xmlns="http://www.w3.org/2000/svg" xmlns:xlink="http://www.w3.org/1999/xlink" viewBox="0 0 81.81726 119.71454"><defs><style>.cls-1{stroke:#fff;stroke-miterlimit:10;fill:url(#radial-gradient);}.cls-2{fill:#fff;}</style><radialGradient id="radial-gradient" cx="48.83524" cy="19.92684" r="0.4916" gradientUnits="userSpaceOnUse"><stop offset="0" stop-color="#d12027"/><stop offset="0.52116" stop-color="#ae1f23"/><stop offset="1" stop-color="#8f191c"/></radialGradient></defs><g id="Layer_2" data-name="Layer 2"><g id="Layer_1-2" data-name="Layer 1"><path class="cls-1" d="M76.70111,83.15454a138.34307,138.34307,0,0,0-13.93018-33.61,139.931,139.931,0,0,0-22.15991-28.83A140.01553,140.01553,0,0,0,16.27191,1.27484,5.083,5.083,0,0,0,9.17347,3.05238L1.1787,16.89646a5.10555,5.10555,0,0,0,1.71682,6.8603A113.05746,113.05746,0,0,1,22.121,39.20453a113.43489,113.43489,0,0,1,18,23.42,112.34445,112.34445,0,0,1,11.31982,27.3A112.81785,112.81785,0,0,1,55.166,114.29563a5.10353,5.10353,0,0,0,5.08148,4.91891H76.22387a5.08563,5.08563,0,0,0,5.08986-5.25431A139.38955,139.38955,0,0,0,76.70111,83.15454Z"/><path class="cls-2" d="M46.22893,44.40285c.25119-.18653.46358-.33874.63556-.46037a1.26252,1.26252,0,0,1,.41023-.19611.469.469,0,0,1,.505.23049.561.561,0,0,1,.12052.35459.3671.3671,0,0,1-.09764.24771,7.27109,7.27109,0,0,1-.86514.67317q.505.53652.99963,1.08591c.08474-.063.17585-.12912.27276-.19966.18878-.13642.29264-.20522.30418-.22144a2.79693,2.79693,0,0,0,.65059-.60326c.34326-.51492.23082-1.19209-.35838-2.00962a3.27684,3.27684,0,0,0-.7841-.80152A1.39474,1.39474,0,0,0,46.71484,42.31a7.11466,7.11466,0,0,0-1.523.99609c-.03014.02342-.06026.04683-.09062.06979-.02417.01944-.04924.03705-.07342.05649-.09608-.12469-.19245-.24868-.28974-.37336q-.22968.0777-.45842.15721.19427.24753.38548.4954c-.043.03352-.08629.06659-.12932.10011-.04326.03307-.08651.06613-.12954.09966-.01746.01285-.0345.02662-.05174.03993-.017.01378-.035.02573-.052.03951q-.1422-.18457-.28566-.368c-.15252.05264-.30546.10435-.45706.15881q.19144.24381.38032.48886c-.072.05526-.14385.111-.21589.16627q-.7387.57614-.99829.81115a1.85242,1.85242,0,0,0-.50258.697,1.79632,1.79632,0,0,0,.40819,1.77408,1.69853,1.69853,0,0,0,1.78049.82918,3.196,3.196,0,0,0,1.05883-.536c.09994-.0658.24891-.1663.44634-.30291q-.3514-.615-.71656-1.22291a6.44546,6.44546,0,0,1-1.13605.725.43755.43755,0,0,1-.43915-.21015.43277.43277,0,0,1-.02064-.55607,5.91493,5.91493,0,0,1,1.00867-.85441c.06769-.05207.13516-.10459.20285-.15666.16093.21871.321.43951.47891.65966q.23312-.06753.4667-.13413-.28526-.4-.57679-.79644l.0351-.0258q.08355-.06105.16667-.123c.05568-.04069.11114-.08185.16682-.12255q.34416.46813.67908.94013c.1575-.0415.31454-.08392.47224-.12495q-.38408-.54452-.77911-1.08152c.03213-.0238.06449-.04716.09662-.071C46.09122,44.5036,46.16029,44.45369,46.22893,44.40285Z"/><path class="cls-2" d="M49.69967,49.61031q.40105-.24324.67544-.39947a1.2438,1.2438,0,0,1,.42668-.15724.46317.46317,0,0,1,.48059.27481.553.553,0,0,1,.08658.36293.3498.3498,0,0,1-.1202.23766,7.98378,7.98378,0,0,1-.92353.59071q.45231.57945.89276,1.16965c.09062-.054.18738-.11154.28986-.174q.30183-.17471.32377-.19138a2.90727,2.90727,0,0,0,.70353-.54073c.39041-.47833.34077-1.16412-.1686-2.03a3.24275,3.24275,0,0,0-.70475-.8676,1.39159,1.39159,0,0,0-1.282-.31007,7.16423,7.16423,0,0,0-1.60823.85158c-.03241.02-.06437.04091-.09678.06091-.02591.01689-.05228.03288-.07819.04977q-.12585-.19916-.253-.39714c-.15723.03743-.31382.07625-.47086.11416q.16956.26273.33671.52717c-.04576.02975-.09238.05767-.13813.08743s-.09239.05768-.13814.08743c-.0182.01208-.03684.02325-.05526.03486-.01866.01118-.03688.02327-.05531.0349q-.12389-.19588-.24943-.39151-.2347.05814-.46968.11584c.11184.17347.22216.346.33226.52029-.07656.049-.15356.09706-.23035.14559q-.78793.5076-1.06884.71593a1.85018,1.85018,0,0,0-.56569.646,1.78657,1.78657,0,0,0,.23937,1.7996,1.69427,1.69427,0,0,0,1.69381.98606,3.233,3.233,0,0,0,1.1036-.43635c.10428-.05942.26312-.14324.47249-.26022q-.29161-.64192-.59832-1.28a6.33587,6.33587,0,0,1-1.19825.61674.43512.43512,0,0,1-.41738-.24928.42968.42968,0,0,1,.03176-.55408,5.81647,5.81647,0,0,1,1.08348-.75727q.10854-.06793.21662-.13678.20953.34835.41434.6984c.15916-.02991.31786-.06073.477-.09061q-.24607-.423-.49911-.84371l.03737-.02237c.05915-.0356.11851-.07073.17744-.10679.05935-.03513.11826-.07117.1776-.1063q.298.49528.58718.99533.24042-.04146.48141-.08148-.331-.57578-.67367-1.14544c.03437-.02037.0685-.04119.10264-.062Z"/><path class="cls-2" d="M52.6679,55.10473c.28286-.133.5184-.24669.70949-.33523a1.27338,1.27338,0,0,1,.439-.11809.46544.46544,0,0,1,.45323.31829.54982.54982,0,0,1,.05237.36859.35906.35906,0,0,1-.14169.2254,7.30417,7.30417,0,0,1-.97434.50239q.39686.61863.781,1.24727.14317-.06761.30479-.14627a3.64534,3.64534,0,0,0,.3398-.16131,2.86615,2.86615,0,0,0,.75039-.4736c.4328-.44059.44761-1.12566.02-2.03565a3.22412,3.22412,0,0,0-.62088-.9274,1.37629,1.37629,0,0,0-1.24727-.42581,7.13538,7.13538,0,0,0-1.68.69948c-.03373.01782-.06811.03425-.10184.05207l-.08269.04178q-.10659-.2092-.21488-.41816c-.15973.02342-.31906.04779-.4791.0708q.14385.27585.28617.55527c-.04849.02486-.0972.04927-.14568.07414s-.09719.04928-.14568.07415c-.01921.01031-.03886.0197-.05828.02955l-.05812.03c-.07035-.13811-.14054-.27462-.21209-.41273q-.23888.03648-.4781.07257.1424.27318.28221.54758c-.081.041-.16166.08292-.24271.12391-.55649.28349-.93257.4903-1.13057.61367a1.81791,1.81791,0,0,0-.62312.59071,1.78428,1.78428,0,0,0,.07093,1.81142,1.69571,1.69571,0,0,0,1.59539,1.13784,3.155,3.155,0,0,0,1.1393-.33234c.10919-.04938.27438-.12047.49448-.21555q-.23159-.66724-.47764-1.32981a6.39355,6.39355,0,0,1-1.24983.504.43524.43524,0,0,1-.39272-.287.42733.42733,0,0,1,.08351-.54728,5.94549,5.94549,0,0,1,1.14856-.65437l.22843-.116q.176.36522.34779.733c.16131-.01517.3221-.03122.48306-.04679q-.20592-.44383-.41858-.885l.03931-.01879c.06228-.02978.12456-.05955.18662-.08978s.1243-.06.18656-.08975q.2505.51967.49219,1.04411.24354-.01843.48707-.03631c-.184-.40195-.37283-.80385-.56472-1.202.03583-.0177.0719-.03494.108-.05217Q52.55227,55.15972,52.6679,55.10473Z"/><path class="cls-2" d="M55.11588,60.849c.29248-.11.53876-.19843.73728-.26855a1.216,1.216,0,0,1,.44816-.07684.46731.46731,0,0,1,.42225.35957.56976.56976,0,0,1,.01834.37246.36955.36955,0,0,1-.16206.21093,8.166,8.166,0,0,1-1.01633.411q.33833.65337.66317,1.316c.09863-.03758.20449-.0758.3169-.11771.21812-.07949.33851-.11677.35314-.1294a2.89214,2.89214,0,0,0,.79114-.40185c.47144-.39937.54936-1.08082.20683-2.0281a3.23014,3.23014,0,0,0-.533-.98182,1.39525,1.39525,0,0,0-1.20312-.54039,7.19782,7.19782,0,0,0-1.73707.54209c-.03563.01365-.07083.02822-.10625.04234l-.086.03437q-.08667-.21787-.17548-.43643c-.16171.00748-.32262.01683-.48383.02575q.11814.289.23388.5797c-.051.01932-.10094.04094-.152.06026-.05037.0207-.10117.04048-.15175.06072-.02027.008-.04075.01554-.0608.024l-.06063.02448q-.08589-.21573-.17322-.43076l-.48278.02807q.11671.28545.23063.57168-.12626.05106-.25319.10076c-.57852.23546-.97362.40294-1.18239.50668a1.92521,1.92521,0,0,0-.67488.531,1.78489,1.78489,0,0,0-.096,1.81182,1.69688,1.69688,0,0,0,1.48434,1.28272,3.22157,3.22157,0,0,0,1.16526-.22537c.11431-.03662.2844-.09429.51232-.16889-.11289-.45791-.23136-.916-.35363-1.37051a6.41688,6.41688,0,0,1-1.29123.38583.43608.43608,0,0,1-.36449-.32186.43118.43118,0,0,1,.133-.53887,5.74956,5.74956,0,0,1,1.20437-.54477q.11891-.04755.23825-.09419.14189.3807.27883.76262.2424-.00185.4854-.00173-.16412-.46128-.33541-.92084l.04068-.0155q.097-.03624.19421-.072l.19392-.07243q.202.542.39437,1.08693c.16236.00179.32572.00591.4883.00871q-.21935-.62662-.45182-1.25036c.03745-.014.07467-.02838.11234-.04188C54.95569,60.9081,55.0359,60.87877,55.11588,60.849Z"/><path class="cls-2" d="M53.99289,68.64325a.43939.43939,0,0,1-.33358-.35578.43384.43384,0,0,1,.18193-.52564,5.99361,5.99361,0,0,1,1.24957-.43123c.08177-.02445.164-.048.24576-.07244q.106.39276.20782.78813c.16138.01464.32286.02979.48378.04409-.08042-.31688-.16411-.635-.24977-.95165.01421-.00341.028-.00773.04195-.0116.06651-.01828.13346-.03564.2-.05393.06672-.01781.13321-.03608.1997-.05436q.15153.56024.29316,1.12293.24278.02669.48559.05449c-.10714-.43081-.21954-.86248-.33521-1.2909.03874-.01008.07728-.02062.11581-.03115q.1238-.033.24714-.0669c.303-.079.55581-.14576.75924-.19852a1.257,1.257,0,0,1,.4534-.03487.463.463,0,0,1,.3872.39773.57131.57131,0,0,1-.01594.37365.36082.36082,0,0,1-.18071.19563,7.752,7.752,0,0,1-1.04989.3155q.27672.68367.53981,1.37724c.10165-.02833.21013-.05766.3264-.0879.2237-.0602.3474-.08667.3636-.09611a2.88629,2.88629,0,0,0,.82468-.32779c.50518-.35693.64756-1.02641.39227-2.00638a3.24846,3.24846,0,0,0-.44076-1.0304,1.39827,1.39827,0,0,0-1.14876-.652,7.2336,7.2336,0,0,0-1.78.37847l-.10977.0322c-.02971.00857-.0594.01714-.08888.02616q-.06609-.22518-.13476-.45195-.2418-.00944-.48392-.01869.09146.30006.17961.6c-.05226.01541-.10473.03036-.15677.04622-.05248.015-.10452.03082-.15678.04623-.02093.00607-.04165.0126-.06281.0182l-.06264.01869q-.06525-.22222-.133-.446c-.16106-.00578-.322-.011-.48328-.01674q.09006.29566.17731.59211c-.08747.02492-.17409.05169-.26157.07661q-.89781.26871-1.22387.39586a1.89005,1.89005,0,0,0-.72094.46684,1.79244,1.79244,0,0,0-.2619,1.79991,1.70622,1.70622,0,0,0,1.36069,1.42066,3.21882,3.21882,0,0,0,1.18106-.11636c.117-.02664.29278-.06563.52579-.12071q-.1059-.70283-.22631-1.40209A6.5455,6.5455,0,0,1,53.99289,68.64325Z"/></g></g></svg>