<svg width="61" height="17" viewBox="0 0 61 17" fill="none" xmlns="http://www.w3.org/2000/svg">
<path d="M4.40684 6.9863H7.19011L6.72624 7.91781H4.40684V8.38356V8.84931H6.4943L6.03042 10.0137H4.40684V10.4795C4.40684 12.1096 4.40684 13.0411 4.63878 13.5068C4.63878 13.9726 5.10266 14.2055 5.56654 14.2055C6.03042 14.2055 6.26236 13.9726 6.4943 13.7397C6.4943 13.5068 6.72624 12.5753 6.72624 10.7123L9.74144 10.9452C9.74144 11.411 9.74144 11.8767 9.74144 12.1096C9.74144 13.274 9.74145 14.2055 9.50951 14.6712C8.58175 16.3014 7.42205 17 5.56654 17C3.71103 17 2.55133 16.5342 1.85551 15.3699C1.62357 14.9041 1.39164 14.2055 1.39164 13.5068C1.39164 13.0411 1.39164 12.1096 1.39164 10.7123V10.0137H0L0.231939 9.08219H1.1597V8.84931V8.61644V8.38356V7.91781H0L0.231939 6.9863H1.1597V6.75342V6.52055C1.1597 4.42466 1.1597 3.0274 1.39164 2.56164C1.62357 1.63014 2.31939 0.931507 3.24715 0.465753C3.94297 0.232877 4.87072 0 5.56654 0C7.65399 0 8.81369 0.69863 9.27757 1.86301C9.50951 2.32877 9.50951 3.0274 9.50951 3.9589C9.50951 3.9589 9.50951 4.19178 9.50951 4.89041C9.50951 5.12329 9.50951 5.35616 9.50951 5.58904L6.72624 6.05479C6.72624 4.65753 6.72624 3.9589 6.72624 3.49315C6.72624 3.26027 6.4943 3.0274 6.4943 3.0274C6.03042 2.79452 5.79848 2.79452 5.56654 2.79452C5.10266 2.79452 4.63878 3.0274 4.63878 3.26027C4.63878 3.49315 4.40684 3.9589 4.40684 4.19178C4.40684 4.65753 4.40684 5.35616 4.40684 6.05479V6.52055V6.9863Z" fill="#C32025"/>
<path d="M17.4068 6.9863H20.1901L19.7262 7.91781H17.4068V8.38356V8.84931H19.4943L19.2624 9.78082H17.4068V10.2466C17.4068 11.8767 17.4068 12.8082 17.6388 13.274C17.8707 13.7397 18.1027 13.9726 18.5665 13.9726C19.0304 13.9726 19.2624 13.7397 19.4943 13.5068C19.7262 13.5068 19.7262 12.5753 19.7262 10.7123L22.7414 10.9452C22.7414 11.411 22.7414 11.8767 22.7414 12.1096C22.7414 13.274 22.7414 14.2055 22.5095 14.6712C21.8137 16.0685 20.654 16.7671 18.7985 16.7671C16.943 16.7671 15.7833 16.3014 15.0875 15.137C14.8555 14.6712 14.6236 13.9726 14.6236 13.274C14.6236 12.8082 14.6236 11.8767 14.6236 10.4795V10.0137H13.2319L13.4639 9.08219H14.3916V8.84931V8.61644V8.38356V7.91781H13L13.4639 6.9863H14.3916V6.75342V6.52055C14.3916 4.42466 14.3916 3.0274 14.6236 2.56164C14.8555 1.63014 15.5513 0.931507 16.4791 0.465753C17.1749 0.232877 17.8707 0 18.7985 0C20.8859 0 22.0456 0.69863 22.5095 1.86301C22.7414 2.32877 22.7414 3.0274 22.7414 3.72603C22.7414 3.72603 22.7414 3.9589 22.7414 4.65753C22.7414 4.89041 22.7414 5.12329 22.7414 5.35616L19.7262 6.05479C19.7262 4.65753 19.7262 3.9589 19.7262 3.49315C19.7262 3.26027 19.4943 3.0274 19.4943 3.0274C19.2624 2.79452 19.0304 2.79452 18.7985 2.79452C18.3346 2.79452 17.8707 3.0274 17.8707 3.49315C17.8707 3.72603 17.6388 4.19178 17.6388 4.42466C17.6388 4.89041 17.6388 5.58904 17.6388 6.28767V6.75342V6.9863H17.4068Z" fill="#C32025" fill-opacity="0.3"/>
<path d="M30.4068 6.9863H33.1901L32.7262 7.91781H30.4068V8.38356V8.84931H32.4943L32.2624 9.78082H30.4068V10.2466C30.4068 11.8767 30.4068 12.8082 30.6388 13.274C30.8707 13.7397 31.1027 13.9726 31.5665 13.9726C32.0304 13.9726 32.2624 13.7397 32.4943 13.5068C32.7262 13.5068 32.7262 12.5753 32.7262 10.7123L35.7414 10.9452C35.7414 11.411 35.7414 11.8767 35.7414 12.1096C35.7414 13.274 35.7414 14.2055 35.5095 14.6712C34.8137 16.0685 33.654 16.7671 31.7985 16.7671C29.943 16.7671 28.7833 16.3014 28.0875 15.137C27.8555 14.6712 27.6236 13.9726 27.6236 13.274C27.6236 12.8082 27.6236 11.8767 27.6236 10.4795V10.0137H26.2319L26.4639 9.08219H27.3916V8.84931V8.61644V8.38356V7.91781H26L26.4639 6.9863H27.3916V6.75342V6.52055C27.3916 4.42466 27.3916 3.0274 27.6236 2.56164C27.8555 1.63014 28.5513 0.931507 29.4791 0.465753C30.1749 0.232877 30.8707 0 31.7985 0C33.8859 0 35.0456 0.69863 35.5095 1.86301C35.7414 2.32877 35.7414 3.0274 35.7414 3.72603C35.7414 3.72603 35.7414 3.9589 35.7414 4.65753C35.7414 4.89041 35.7414 5.12329 35.7414 5.35616L32.7262 6.05479C32.7262 4.65753 32.7262 3.9589 32.7262 3.49315C32.7262 3.26027 32.4943 3.0274 32.4943 3.0274C32.2624 2.79452 32.0304 2.79452 31.7985 2.79452C31.3346 2.79452 30.8707 3.0274 30.8707 3.49315C30.8707 3.72603 30.6388 4.19178 30.6388 4.42466C30.6388 4.89041 30.6388 5.58904 30.6388 6.28767V6.75342V6.9863H30.4068Z" fill="#C32025" fill-opacity="0.3"/>
<path d="M42.4068 6.9863H45.1901L44.7262 7.91781H42.4068V8.38356V8.84931H44.4943L44.2624 9.78082H42.4068V10.2466C42.4068 11.8767 42.4068 12.8082 42.6388 13.274C42.8707 13.7397 43.1027 13.9726 43.5665 13.9726C44.0304 13.9726 44.2624 13.7397 44.4943 13.5068C44.7262 13.5068 44.7262 12.5753 44.7262 10.7123L47.7414 10.9452C47.7414 11.411 47.7414 11.8767 47.7414 12.1096C47.7414 13.274 47.7414 14.2055 47.5095 14.6712C46.8137 16.0685 45.654 16.7671 43.7985 16.7671C41.943 16.7671 40.7833 16.3014 40.0875 15.137C39.8555 14.6712 39.6236 13.9726 39.6236 13.274C39.6236 12.8082 39.6236 11.8767 39.6236 10.4795V10.0137H38.2319L38.4639 9.08219H39.3916V8.84931V8.61644V8.38356V7.91781H38L38.4639 6.9863H39.3916V6.75342V6.52055C39.3916 4.42466 39.3916 3.0274 39.6236 2.56164C39.8555 1.63014 40.5513 0.931507 41.4791 0.465753C42.1749 0.232877 42.8707 0 43.7985 0C45.8859 0 47.0456 0.69863 47.5095 1.86301C47.7414 2.32877 47.7414 3.0274 47.7414 3.72603C47.7414 3.72603 47.7414 3.9589 47.7414 4.65753C47.7414 4.89041 47.7414 5.12329 47.7414 5.35616L44.7262 6.05479C44.7262 4.65753 44.7262 3.9589 44.7262 3.49315C44.7262 3.26027 44.4943 3.0274 44.4943 3.0274C44.2624 2.79452 44.0304 2.79452 43.7985 2.79452C43.3346 2.79452 42.8707 3.0274 42.8707 3.49315C42.8707 3.72603 42.6388 4.19178 42.6388 4.42466C42.6388 4.89041 42.6388 5.58904 42.6388 6.28767V6.75342V6.9863H42.4068Z" fill="#C32025" fill-opacity="0.3"/>
<path d="M55.4068 6.9863H58.1901L57.7262 7.91781H55.4068V8.38356V8.84931H57.4943L57.2624 9.78082H55.4068V10.2466C55.4068 11.8767 55.4068 12.8082 55.6388 13.274C55.8707 13.7397 56.1027 13.9726 56.5665 13.9726C57.0304 13.9726 57.2624 13.7397 57.4943 13.5068C57.7262 13.5068 57.7262 12.5753 57.7262 10.7123L60.7414 10.9452C60.7414 11.411 60.7414 11.8767 60.7414 12.1096C60.7414 13.274 60.7414 14.2055 60.5095 14.6712C59.8137 16.0685 58.654 16.7671 56.7985 16.7671C54.943 16.7671 53.7833 16.3014 53.0875 15.137C52.8555 14.6712 52.6236 13.9726 52.6236 13.274C52.6236 12.8082 52.6236 11.8767 52.6236 10.4795V10.0137H51.2319L51.4639 9.08219H52.3916V8.84931V8.61644V8.38356V7.91781H51L51.4639 6.9863H52.3916V6.75342V6.52055C52.3916 4.42466 52.3916 3.0274 52.6236 2.56164C52.8555 1.63014 53.5513 0.931507 54.4791 0.465753C55.1749 0.232877 55.8707 0 56.7985 0C58.8859 0 60.0456 0.69863 60.5095 1.86301C60.7414 2.32877 60.7414 3.0274 60.7414 3.72603C60.7414 3.72603 60.7414 3.9589 60.7414 4.65753C60.7414 4.89041 60.7414 5.12329 60.7414 5.35616L57.7262 6.05479C57.7262 4.65753 57.7262 3.9589 57.7262 3.49315C57.7262 3.26027 57.4943 3.0274 57.4943 3.0274C57.2624 2.79452 57.0304 2.79452 56.7985 2.79452C56.3346 2.79452 55.8707 3.0274 55.8707 3.49315C55.8707 3.72603 55.6388 4.19178 55.6388 4.42466C55.6388 4.89041 55.6388 5.58904 55.6388 6.28767V6.75342V6.9863H55.4068Z" fill="#C32025" fill-opacity="0.3"/>
</svg>
