<svg width="53" height="33" viewBox="0 0 53 33" fill="none" xmlns="http://www.w3.org/2000/svg">
<circle cx="26.5" cy="16.5" r="16.5" fill="black"/>
<path d="M24.3182 20.767V20.4773C24.3239 19.483 24.4119 18.6903 24.5824 18.0994C24.7585 17.5085 25.0142 17.0312 25.3494 16.6676C25.6847 16.304 26.0881 15.9744 26.5597 15.679C26.9119 15.4517 27.2273 15.2159 27.5057 14.9716C27.7841 14.7273 28.0057 14.4574 28.1705 14.1619C28.3352 13.8608 28.4176 13.5256 28.4176 13.1562C28.4176 12.7642 28.3239 12.4205 28.1364 12.125C27.9489 11.8295 27.696 11.6023 27.3778 11.4432C27.0653 11.2841 26.7188 11.2045 26.3381 11.2045C25.9688 11.2045 25.6193 11.2869 25.2898 11.4517C24.9602 11.6108 24.6903 11.8494 24.4801 12.1676C24.2699 12.4801 24.1563 12.8693 24.1392 13.3352H20.6619C20.6903 12.1989 20.9631 11.2614 21.4801 10.5227C21.9972 9.77841 22.6818 9.22443 23.5341 8.86079C24.3864 8.49148 25.3267 8.30682 26.3551 8.30682C27.4858 8.30682 28.4858 8.49432 29.3551 8.86932C30.2244 9.23864 30.9063 9.77557 31.4006 10.4801C31.8949 11.1847 32.142 12.0341 32.142 13.0284C32.142 13.6932 32.0313 14.2841 31.8097 14.8011C31.5938 15.3125 31.2898 15.767 30.8977 16.1648C30.5057 16.5568 30.0426 16.9119 29.5085 17.2301C29.0597 17.4972 28.6903 17.7756 28.4006 18.0653C28.1165 18.3551 27.9034 18.6903 27.7614 19.071C27.625 19.4517 27.554 19.9205 27.5483 20.4773V20.767H24.3182ZM26.0057 26.2216C25.4375 26.2216 24.9517 26.0227 24.5483 25.625C24.1506 25.2216 23.9545 24.7386 23.9602 24.1761C23.9545 23.6193 24.1506 23.142 24.5483 22.7443C24.9517 22.3466 25.4375 22.1477 26.0057 22.1477C26.5455 22.1477 27.0199 22.3466 27.429 22.7443C27.8381 23.142 28.0455 23.6193 28.0511 24.1761C28.0455 24.5511 27.946 24.8949 27.7528 25.2074C27.5653 25.5142 27.3182 25.7614 27.0114 25.9489C26.7045 26.1307 26.3693 26.2216 26.0057 26.2216Z" fill="white"/>
</svg>
