<svg width="61" height="17" viewBox="0 0 61 17" fill="none" xmlns="http://www.w3.org/2000/svg">
<path d="M4.40684 6.9863H7.19011L6.72624 7.91781H4.40684V8.38356V8.84931H6.4943L6.03042 10.0137H4.40684V10.4795C4.40684 12.1096 4.40684 13.0411 4.63878 13.5068C4.63878 13.9726 5.10266 14.2055 5.56654 14.2055C6.03042 14.2055 6.26236 13.9726 6.4943 13.7397C6.4943 13.5068 6.72624 12.5753 6.72624 10.7123L9.74144 10.9452C9.74144 11.411 9.74144 11.8767 9.74144 12.1096C9.74144 13.274 9.74144 14.2055 9.50951 14.6712C8.58175 16.3014 7.42205 17 5.56654 17C3.71103 17 2.55133 16.5342 1.85551 15.3699C1.62357 14.9041 1.39164 14.2055 1.39164 13.5068C1.39164 13.0411 1.39164 12.1096 1.39164 10.7123V10.0137H0L0.231939 9.08219H1.1597V8.84931V8.61644V8.38356V7.91781H0L0.231939 6.9863H1.1597V6.75342V6.52055C1.1597 4.42466 1.1597 3.0274 1.39164 2.56164C1.62357 1.63014 2.31939 0.931507 3.24715 0.465753C3.94297 0.232877 4.87072 0 5.56654 0C7.65399 0 8.81369 0.69863 9.27757 1.86301C9.50951 2.32877 9.50951 3.0274 9.50951 3.9589C9.50951 3.9589 9.50951 4.19178 9.50951 4.89041C9.50951 5.12329 9.50951 5.35616 9.50951 5.58904L6.72624 6.05479C6.72624 4.65753 6.72624 3.9589 6.72624 3.49315C6.72624 3.26027 6.4943 3.0274 6.4943 3.0274C6.03042 2.79452 5.79848 2.79452 5.56654 2.79452C5.10266 2.79452 4.63878 3.0274 4.63878 3.26027C4.63878 3.49315 4.40684 3.9589 4.40684 4.19178C4.40684 4.65753 4.40684 5.35616 4.40684 6.05479V6.52055V6.9863Z" fill="#C32025"/>
<path d="M17.1637 6.9863H19.947L19.715 7.91781H17.3956V8.38356V8.84931H19.4831L19.0192 10.0137H17.1637V10.4795C17.1637 12.1096 17.1637 13.0411 17.3956 13.5068C17.6276 13.9726 17.8595 14.2055 18.3234 14.2055C18.7873 14.2055 19.0192 13.9726 19.2511 13.7397C19.2511 13.5068 19.4831 12.5753 19.4831 10.7123L22.4983 10.9452C22.4983 11.411 22.4983 11.8767 22.4983 12.1096C22.4983 13.274 22.4983 14.2055 22.2663 14.6712C21.5705 16.3014 20.1789 17 18.3234 17C16.4679 17 15.3082 16.5342 14.6123 15.3699C14.3804 14.9041 14.1485 14.2055 14.1485 13.5068C14.1485 13.0411 14.1485 12.1096 14.1485 10.7123V10.0137H12.7568L12.9888 9.08219H13.9165V8.84931V8.61644V8.38356V7.91781H12.7568L13.2207 6.9863H14.1485V6.75342V6.52055C14.1485 4.42466 14.1485 3.0274 14.3804 2.56164C14.6123 1.39726 15.3082 0.69863 16.2359 0.465753C16.9317 0.232877 17.6276 0 18.5553 0C20.6428 0 21.8025 0.69863 22.2663 1.86301C22.2663 2.32877 22.2663 3.0274 22.4983 3.9589C22.4983 3.9589 22.4983 4.19178 22.4983 4.89041C22.4983 5.12329 22.4983 5.35616 22.4983 5.58904L19.4831 6.05479C19.4831 4.65753 19.4831 3.9589 19.4831 3.49315C19.4831 3.26027 19.2511 3.0274 19.2511 3.0274C18.7873 2.79452 18.5553 2.79452 18.3234 2.79452C17.8595 2.79452 17.3956 3.0274 17.3956 3.49315C17.3956 3.72603 17.1637 4.19178 17.1637 4.42466C17.1637 4.89041 17.1637 5.58904 17.1637 6.28767V6.75342V6.9863Z" fill="#C32025"/>
<path d="M30.152 6.9863H32.9352L32.4714 7.91781H30.152V8.38356V8.84931H32.2394L32.0075 9.78082H30.152V10.2466C30.152 11.8767 30.152 12.8082 30.3839 13.274C30.6158 13.7397 30.8478 13.9726 31.3117 13.9726C31.7755 13.9726 32.0075 13.7397 32.2394 13.5068C32.2394 13.274 32.4714 12.3425 32.4714 10.4795L35.4866 10.7123C35.4866 11.1781 35.4866 11.6438 35.4866 11.8767C35.4866 13.0411 35.4866 13.9726 35.2546 14.4384C34.5588 15.8356 33.3991 16.5342 31.5436 16.5342C29.6881 16.5342 28.5284 16.0685 27.8326 14.9041C27.6006 14.4384 27.3687 13.7397 27.3687 13.0411C27.3687 12.5753 27.3687 11.6438 27.3687 10.2466V10.0137H25.9771L26.209 9.08219H27.1368V8.84931V8.61644V8.38356V7.91781H25.7451L25.9771 6.9863H26.9048V6.75342V6.52055C26.9048 4.42466 26.9048 3.0274 27.1368 2.56164C27.3687 1.63014 28.0645 0.931507 28.9923 0.465753C29.6881 0.232877 30.3839 0 31.3117 0C33.3991 0 34.5588 0.69863 35.0227 1.86301C35.2546 2.32877 35.2546 3.0274 35.2546 3.72603C35.2546 3.72603 35.2546 3.9589 35.2546 4.65753C35.2546 4.89041 35.2546 5.12329 35.2546 5.35616L32.2394 5.82192C32.2394 4.42466 32.2394 3.72603 32.2394 3.26027C32.2394 3.0274 32.0075 2.79452 32.0075 2.79452C31.7755 2.56164 31.5436 2.56164 31.3117 2.56164C30.8478 2.56164 30.3839 2.79452 30.3839 3.26027C30.152 3.72603 30.152 3.9589 30.152 4.42466C30.152 4.89041 30.152 5.58904 30.152 6.28767V6.75342V6.9863Z" fill="#C32025"/>
<path d="M42.9083 6.9863H45.6916L45.2277 7.91781H42.9083V8.38356V8.84931H44.9958L44.7638 9.78082H43.1403V10.2466C43.1403 11.8767 43.1403 12.8082 43.3722 13.274C43.1403 13.9726 43.6041 14.2055 44.068 14.2055C44.5319 14.2055 44.7638 13.9726 44.9958 13.7397C44.9958 13.5068 45.2277 12.5753 45.2277 10.7123L48.2429 10.9452C48.2429 11.411 48.2429 11.8767 48.2429 12.1096C48.2429 13.274 48.2429 14.2055 48.011 14.6712C47.0832 16.3014 45.9235 17 44.068 17C42.2125 17 41.0528 16.5342 40.357 15.3699C40.125 14.9041 39.8931 14.2055 39.8931 13.5068C39.8931 13.0411 39.8931 12.1096 39.8931 10.7123V10.0137H38.5015L38.7334 9.08219H39.6612V8.84931V8.61644V8.38356V7.91781H38.2695L38.7334 6.9863H39.6612V6.75342V6.52055C39.6612 4.42466 39.6612 3.0274 39.8931 2.56164C40.125 1.63014 40.8209 0.931507 41.7486 0.465753C42.6764 0.232877 43.3722 0 44.068 0C46.1555 0 47.3152 0.69863 47.779 1.86301C48.011 2.32877 48.011 3.0274 48.011 3.72603C48.011 3.72603 48.011 3.9589 48.011 4.65753C48.011 4.89041 48.011 5.12329 48.011 5.35616L44.9958 5.82192C44.9958 4.42466 44.9958 3.72603 44.9958 3.26027C44.9958 3.0274 44.7638 2.79452 44.7638 2.79452C44.5319 2.56164 44.2999 2.56164 44.068 2.56164C43.6041 2.56164 43.1403 2.79452 43.1403 3.26027C43.1403 3.49315 42.9083 3.9589 42.9083 4.19178C42.9083 4.65753 42.9083 5.35616 42.9083 6.05479V6.52055V6.9863Z" fill="#C32025"/>
<path d="M55.6656 6.9863H58.4489L57.985 7.91781H55.6656V8.38356V8.84931H57.7531L57.5211 9.78082H55.6656V10.2466C55.6656 11.8767 55.6656 12.8082 55.8976 13.274C56.1295 13.7397 56.3615 13.9726 56.8253 13.9726C57.2892 13.9726 57.5211 13.7397 57.7531 13.5068C57.985 13.5068 57.985 12.5753 57.985 10.7123L61.0002 10.9452C61.0002 11.411 61.0002 11.8767 61.0002 12.1096C61.0002 13.274 61.0002 14.2055 60.7683 14.6712C60.0725 16.0685 58.9128 16.7671 57.0573 16.7671C55.2018 16.7671 54.0421 16.3014 53.3462 15.137C53.1143 14.6712 52.8824 13.9726 52.8824 13.274C52.8824 12.8082 52.8824 11.8767 52.8824 10.4795V10.0137H51.4907L51.7227 9.08219H52.6504V8.84931V8.61644V8.38356V7.91781H51.2588L51.7227 6.9863H52.6504V6.75342V6.52055C52.6504 4.42466 52.6504 3.0274 52.8824 2.56164C53.1143 1.63014 53.8101 0.931507 54.7379 0.465753C55.4337 0.232877 56.1295 0 57.0573 0C59.1447 0 60.3044 0.69863 60.7683 1.86301C61.0002 2.32877 61.0002 3.0274 61.0002 3.72603C61.0002 3.72603 61.0002 3.9589 61.0002 4.65753C61.0002 4.89041 61.0002 5.12329 61.0002 5.35616L57.985 6.05479C57.985 4.65753 57.985 3.9589 57.985 3.49315C57.985 3.26027 57.7531 3.0274 57.7531 3.0274C57.5211 2.79452 57.2892 2.79452 57.0573 2.79452C56.5934 2.79452 56.1295 3.0274 56.1295 3.49315C56.1295 3.72603 55.8976 4.19178 55.8976 4.42466C55.8976 4.89041 55.8976 5.58904 55.8976 6.28767V6.75342V6.9863H55.6656Z" fill="#C32025" fill-opacity="0.3"/>
</svg>
