<svg width="30" height="34" viewBox="0 0 30 34" fill="none" xmlns="http://www.w3.org/2000/svg">
<path d="M22.5002 21.1803C21.5182 21.1812 20.5757 21.6172 19.8752 22.3946L10.0002 17.4243C10.0002 17.2549 10.0002 17.1137 10.0002 16.9442C10.0002 16.7748 10.0002 16.6336 10.0002 16.4783L19.8752 11.4939C20.4937 12.1787 21.303 12.6006 22.1656 12.6879C23.0283 12.7752 23.8911 12.5224 24.6075 11.9726C25.3239 11.4228 25.8498 10.6099 26.0957 9.67178C26.3417 8.73371 26.2927 7.72837 25.9569 6.82652C25.6211 5.92467 25.0194 5.18191 24.2538 4.72439C23.4882 4.26687 22.6061 4.12281 21.7571 4.31666C20.9082 4.5105 20.1449 5.03032 19.5967 5.78782C19.0486 6.54532 18.7495 7.49379 18.7502 8.47215V8.95224L8.87516 13.9225C8.34811 13.3376 7.67984 12.9416 6.95424 12.7842C6.22865 12.6268 5.47806 12.7151 4.7967 13.0379C4.11534 13.3607 3.53359 13.9036 3.12446 14.5986C2.71533 15.2936 2.49707 16.1096 2.49707 16.9442C2.49707 17.7789 2.71533 18.5949 3.12446 19.2899C3.53359 19.9849 4.11534 20.5278 4.7967 20.8506C5.47806 21.1734 6.22865 21.2617 6.95424 21.1043C7.67984 20.9469 8.34811 20.5509 8.87516 19.966L18.7502 24.9504V25.4163C18.7502 26.2542 18.9701 27.0731 19.3822 27.7698C19.7942 28.4664 20.3799 29.0093 21.0651 29.3299C21.7503 29.6506 22.5043 29.7344 23.2318 29.571C23.9592 29.4075 24.6274 29.0041 25.1518 28.4117C25.6763 27.8193 26.0334 27.0645 26.1781 26.2428C26.3228 25.421 26.2485 24.5693 25.9647 23.7953C25.6809 23.0212 25.2002 22.3597 24.5836 21.8942C23.9669 21.4287 23.2418 21.1803 22.5002 21.1803ZM22.5002 7.06013C22.7474 7.06013 22.9891 7.14295 23.1946 7.2981C23.4002 7.45326 23.5604 7.67378 23.655 7.9318C23.7496 8.18981 23.7744 8.47372 23.7261 8.74762C23.6779 9.02152 23.5589 9.27312 23.384 9.4706C23.2092 9.66807 22.9865 9.80255 22.744 9.85703C22.5016 9.91152 22.2502 9.88355 22.0218 9.77668C21.7934 9.66981 21.5982 9.48883 21.4608 9.25662C21.3235 9.02442 21.2502 8.75142 21.2502 8.47215C21.2502 8.09766 21.3819 7.73851 21.6163 7.4737C21.8507 7.2089 22.1686 7.06013 22.5002 7.06013ZM6.25016 18.3563C6.00294 18.3563 5.76126 18.2734 5.5557 18.1183C5.35014 17.9631 5.18992 17.7426 5.09531 17.4846C5.0007 17.2266 4.97595 16.9427 5.02418 16.6688C5.07241 16.3949 5.19146 16.1433 5.36628 15.9458C5.5411 15.7483 5.76382 15.6138 6.0063 15.5594C6.24878 15.5049 6.50011 15.5328 6.72852 15.6397C6.95693 15.7466 7.15215 15.9276 7.2895 16.1598C7.42685 16.392 7.50016 16.665 7.50016 16.9442C7.50016 17.3187 7.36847 17.6779 7.13405 17.9427C6.89963 18.2075 6.58168 18.3563 6.25016 18.3563ZM22.5002 26.8284C22.2529 26.8284 22.0113 26.7455 21.8057 26.5904C21.6001 26.4352 21.4399 26.2147 21.3453 25.9567C21.2507 25.6987 21.226 25.4148 21.2742 25.1409C21.3224 24.867 21.4415 24.6154 21.6163 24.4179C21.7911 24.2204 22.0138 24.0859 22.2563 24.0315C22.4988 23.977 22.7501 24.0049 22.9785 24.1118C23.2069 24.2187 23.4022 24.3997 23.5395 24.6319C23.6769 24.8641 23.7502 25.1371 23.7502 25.4163C23.7502 25.7908 23.6185 26.15 23.384 26.4148C23.1496 26.6796 22.8317 26.8284 22.5002 26.8284Z" fill="#FF0000"/>
</svg>
