<svg width="20" height="25" viewBox="0 0 20 25" fill="none" xmlns="http://www.w3.org/2000/svg">
<path d="M16.875 8.88636L15.7955 11.2273H0.852273L1.70455 8.88636H16.875ZM14.8409 13.5L13.7386 15.8636H0.852273L1.70455 13.5H14.8409ZM19.6477 2.71591L18.3068 5.59091C17.8826 5.22727 17.4205 4.89773 16.9205 4.60227C16.4205 4.30682 15.8826 4.07197 15.3068 3.89773C14.7311 3.71591 14.1136 3.625 13.4545 3.625C12.2424 3.625 11.1629 3.95076 10.2159 4.60227C9.26894 5.25379 8.52273 6.23106 7.97727 7.53409C7.43939 8.82954 7.17045 10.4432 7.17045 12.375C7.17045 14.3068 7.43939 15.9205 7.97727 17.2159C8.52273 18.5114 9.26894 19.4848 10.2159 20.1364C11.1629 20.7803 12.2424 21.1023 13.4545 21.1023C14.1212 21.1023 14.7424 21.0152 15.3182 20.8409C15.9015 20.6667 16.4318 20.4394 16.9091 20.1591C17.3939 19.8712 17.8295 19.5682 18.2159 19.25L19.5909 22.1136C18.7879 22.8409 17.8561 23.3902 16.7955 23.7614C15.7348 24.1326 14.6212 24.3182 13.4545 24.3182C11.553 24.3182 9.86742 23.8371 8.39773 22.875C6.93561 21.9129 5.78788 20.5417 4.95455 18.7614C4.12121 16.9735 3.70455 14.8447 3.70455 12.375C3.70455 9.89773 4.12121 7.76515 4.95455 5.97727C5.78788 4.18939 6.93561 2.81439 8.39773 1.85227C9.86742 0.890151 11.553 0.40909 13.4545 0.40909C14.6667 0.40909 15.7955 0.609847 16.8409 1.01136C17.8864 1.4053 18.822 1.97348 19.6477 2.71591Z" fill="#FF0000"/>
</svg>
