<?xml version="1.0" encoding="UTF-8"?><svg id="Layer_1" xmlns="http://www.w3.org/2000/svg" viewBox="0 0 119.21 36.48"><defs><style>.cls-1{fill:#da2128;}.cls-2{fill:#b3b3b3;}.cls-3{fill:#e6e7e8;}.cls-4{fill:#bcbec0;}.cls-5{fill:#58595b;}</style></defs><path class="cls-1" d="m95.64,24.65h-3.74c-1.1,0-2.2.16-2.98.45-.87.32-1.65.8-2.06,1.99-.42,1.21-1.93,6.21-2.36,6.93-.23.37-.61,1.11-1.69,1.11h-4.25s0,.35,0,.35h4.36c1.1,0,2.2-.16,2.98-.45.87-.32,1.65-.8,2.06-2,.42-1.23,1.94-6.29,2.35-6.92.23-.37.62-1.13,1.7-1.13h3.62v-.35Z"/><path class="cls-1" d="m96.22,31.28h-4.1v.36h1.91v.62c0,.75-.05,1.31-.14,1.69-.09.38-.32.71-.69.9-.32.17-.58.29-1.07.29v.35h0c.96,0,1.89-.29,2.77-.88.88-.59,1.33-1.56,1.33-2.92h0v-.4Z"/><path class="cls-1" d="m80.93,29.02c-.03.07-.06.14-.1.2-.07.11-.15.2-.22.28-.15.13-.33.22-.51.28-.36.09-.74.11-1.11.11h-.43v.35h0c.52,0,1.03,0,1.54.12.18.06.36.15.51.28.08.08.15.17.22.28.04.06.07.13.1.2.12.31.2.68.22,1.22h.42v-4.55h-.42c-.03.54-.1.92-.22,1.23"/><path class="cls-1" d="m84.69,24.65h-6.13v.35h2.69c1.01,0,1.74.16,2.17.49.43.33.72.86.86,1.59h.41v-2.43Z"/><path class="cls-5" d="m119.21,35.51v-2.26h-.38v.36c-.07-.19-.33-.41-.71-.41-.61,0-1.1.44-1.11,1.18,0,.74.5,1.18,1.11,1.18.38,0,.64-.22.71-.41v.36h.38Zm-.41-1.13s0,0,0,0c0,.38-.19.87-.68.87s-.7-.44-.7-.87c0-.43.21-.87.7-.87s.68.48.68.86c0,0,0,0,0,0m-1.84,1.12l-.99-1.32.87-.92h-.49l-.66.78c-.07.08-.14.18-.19.26h-.01v-2.08h-.41v3.3h.41v-.85l.21-.24.77,1.08h.5Zm-3.42-1.69c0-.17.13-.31.37-.31.21,0,.37.08.46.13l.1-.29c-.12-.08-.32-.14-.55-.14-.48,0-.78.3-.78.66,0,.27.19.49.6.64.3.11.41.22.41.41s-.14.33-.43.33c-.2,0-.42-.08-.54-.16l-.1.31c.16.09.39.16.63.16.53,0,.84-.28.84-.68,0-.34-.2-.53-.59-.68-.29-.11-.42-.2-.42-.39m-.07-2.67c0-.68-.44-1.15-1.08-1.15s-1.12.44-1.12,1.2c0,.63.38,1.06.88,1.14v-.33c-.28-.1-.47-.43-.47-.83,0-.43.21-.87.69-.87s.68.48.68.86c0,.42-.2.74-.49.85v.32c.47-.08.91-.45.91-1.18m-2.53-.78c.06,0,.1,0,.14,0v-.38s-.07-.01-.11-.01c-.27,0-.53.19-.63.49h-.01l-.02-.44h-.36c.01.21.02.44.02.7v1.55s.4,0,.4,0v-1.2c0-.07,0-.13.01-.19.06-.3.26-.52.55-.52m-.43,2.84c-.37,0-.63.21-.74.42h0l-.02-.37h-.36c.01.19.02.37.02.61v1.64h.41v-1.36c0-.06,0-.14.03-.19.08-.23.28-.42.55-.42.39,0,.52.31.52.67v1.3h.41v-1.34c0-.77-.48-.96-.79-.96m-1.77-2.87h.59v-.31h-.59v-.54l-.4.13v.41h-.35v.31h.35v1.23c0,.27.05.47.16.59.1.11.25.17.44.17.16,0,.28-.03.36-.06l-.02-.31c-.06.02-.13.03-.24.03-.23,0-.31-.16-.31-.44v-1.21Zm-.9,1.94l-.99-1.32.87-.92h-.49l-.66.77c-.07.07-.14.18-.2.26h0v-2.08h-.41v3.3h.41v-.85l.21-.24.77,1.08h.5Zm-1.62.93c-.27,0-.52.19-.63.49h-.01l-.02-.44h-.36c.01.21.02.44.02.7v1.55s.4,0,.4,0v-1.2c0-.07,0-.13.01-.19.06-.3.26-.52.55-.52.06,0,.1,0,.14,0v-.38s-.07-.01-.11-.01m-.72-1.96s0-.03,0-.04c0-.29-.04-.52-.13-.68-.09-.17-.22-.3-.38-.39-.17-.09-.35-.14-.55-.14-.32,0-.58.1-.77.3-.2.2-.29.49-.29.87,0,.42.12.73.35.93.19.17.43.25.71.25.31,0,.57-.1.77-.3.12-.12.2-.27.25-.44h-.41c-.03.08-.07.15-.12.21-.13.14-.29.22-.48.22s-.35-.07-.48-.21c-.13-.14-.19-.36-.19-.65s.06-.51.19-.65c.13-.14.29-.22.48-.22s.35.07.48.22c.09.1.14.24.17.41h-.97v.31h1.39Zm-2.97,1.04h.41v-3.3h-.41v3.3Zm-.03,2.13c0,.71.48,1.16,1.08,1.16h0c.54,0,1.12-.36,1.12-1.2,0-.68-.44-1.15-1.08-1.15s-1.12.44-1.12,1.2m.41-.01c0-.43.21-.87.69-.87s.68.48.68.86c0,.51-.29.88-.68.88h0c-.4,0-.67-.37-.67-.87m-.87-3.15s0-.03,0-.04c0-.29-.04-.52-.13-.68-.09-.17-.22-.3-.38-.39-.17-.09-.35-.14-.55-.14-.32,0-.58.1-.77.3-.2.2-.29.49-.29.87,0,.42.12.73.35.93.19.17.43.25.71.25.31,0,.57-.1.77-.3.12-.12.2-.27.25-.44h-.41c-.03.08-.07.15-.12.21-.13.14-.29.22-.48.22s-.35-.07-.48-.21c-.13-.14-.19-.36-.19-.65s.06-.51.19-.65c.13-.14.29-.22.48-.22s.35.07.48.22c.09.1.14.24.17.41h-.97v.31h1.39Zm-2.13,3.15c0,.38.1.67.29.87.2.2.45.3.77.3.2,0,.38-.05.55-.14.17-.09.3-.22.38-.39.09-.17.13-.39.13-.68,0-.01,0-.03,0-.04h-1.39v.32h.97c-.03.17-.08.31-.17.41-.13.14-.29.22-.48.22s-.35-.07-.48-.22c-.13-.14-.19-.36-.19-.65s.06-.5.19-.65c.13-.14.29-.21.48-.21s.35.07.48.22c.05.06.09.13.12.21h.41c-.05-.17-.13-.32-.25-.44-.2-.2-.45-.3-.77-.3-.28,0-.52.08-.71.25-.23.2-.35.51-.35.93m7.06-.88c-.2.2-.29.49-.29.88,0,.42.12.73.35.93.2.17.43.25.71.25.31,0,.57-.1.77-.3.12-.12.2-.27.25-.44h-.41c-.03.08-.07.15-.12.21-.13.14-.29.22-.48.22s-.35-.07-.48-.21c-.13-.14-.19-.36-.19-.65s.06-.51.19-.65c.13-.14.29-.22.48-.22s.35.07.48.22c.09.1.14.24.17.41h-.97v.32h1.39s0-.03,0-.04c0-.29-.04-.52-.13-.68-.09-.17-.22-.3-.38-.39-.17-.09-.35-.14-.55-.14-.32,0-.57.1-.77.3m5.01,2.48c-.1.11-.26.16-.45.17l.05.32c.22,0,.52-.07.7-.26.2-.2.27-.49.27-.93v-2.05h-.41v1.89c0,.54-.05.72-.16.85"/><path class="cls-1" d="m110.94,24.59c-.37,0-.63.21-.74.42h0l-.02-.37h-.36c.01.19.02.37.02.61v1.64h.41v-1.36c0-.06,0-.14.03-.19.08-.23.28-.42.55-.42.39,0,.52.31.52.67v1.3h.41v-1.34c0-.77-.48-.96-.79-.96"/><path class="cls-1" d="m100.37,25.2c0-.17.13-.31.37-.31.21,0,.37.08.46.13l.1-.29c-.12-.08-.32-.14-.55-.14-.48,0-.78.3-.78.66,0,.27.19.49.6.64.3.11.41.22.41.41s-.14.33-.43.33c-.2,0-.42-.08-.54-.16l-.1.31c.16.09.39.16.63.16.53,0,.84-.28.84-.68,0-.34-.2-.53-.59-.68-.29-.11-.42-.2-.42-.39"/><path class="cls-1" d="m113.9,25.78c0,.38-.19.86-.68.86s-.7-.44-.7-.87c0-.43.21-.87.7-.87s.68.48.68.86c0,0,0,0,0,0s0,0,0,0m.03-1.14v.36c-.07-.19-.33-.41-.71-.41-.61,0-1.1.44-1.11,1.18,0,.74.5,1.18,1.11,1.18.38,0,.64-.22.71-.41v.36h.38v-2.26h-.38Z"/><path class="cls-1" d="m105.52,26.63c-.23.24-.41.33-.69.33s-.52-.11-.66-.3c-.1-.14-.13-.3-.13-.59v-1.42h.38v1.41c0,.38.17.58.51.58.19,0,.39-.09.5-.22.08-.09.11-.2.11-.36v-1.41h.38v2.26h-.38v-.27Z"/><path class="cls-1" d="m106.73,25.76c0,.52.26.86.67.86s.67-.34.67-.85-.26-.85-.67-.85-.67.34-.67.84m.03-.84c.22-.23.43-.33.7-.33.29,0,.58.14.76.37.17.21.25.49.25.81s-.09.61-.25.81c-.19.23-.48.37-.76.37s-.49-.1-.71-.33v1.41h-.38v-3.39h.38v.28Z"/><rect class="cls-1" x="108.91" y="24.63" width=".38" height="2.26"/><path class="cls-1" d="m103.14,24.66l-.66.77c-.06.07-.14.18-.19.25h0v-1.7h-.41v2.9h.41v-.84l.21-.23.76,1.07h.49l-.98-1.31.86-.92h-.48Z"/><path class="cls-4" d="m14.4,17.05c-.47,0-.91.08-1.33.22l-.59,1.27c.54-.39,1.21-.62,1.92-.62,1.3,0,2.43.75,2.98,1.84.04-.43.1-.86.18-1.28-.77-.88-1.9-1.44-3.16-1.44Z"/><path class="cls-1" d="m17.38,22.59s0,0,0,0c-.03.06-.07.12-.1.19-.02.04-.04.08-.07.11-.03.05-.06.1-.1.14-.03.04-.06.09-.1.13-.03.04-.06.07-.09.11-.04.05-.08.09-.12.14-.03.03-.06.06-.1.09-.04.04-.09.08-.14.12-.04.03-.08.06-.12.09-.04.03-.09.07-.13.1-.05.03-.1.07-.15.1-.04.02-.07.05-.11.07-.06.03-.12.07-.18.1-.03.02-.06.03-.09.05-.07.03-.14.06-.21.08-.03.01-.06.02-.09.03-.07.02-.14.04-.21.06-.04,0-.07.02-.11.03-.06.01-.13.03-.19.04-.05,0-.1.02-.14.02-.05,0-.11.01-.16.02-.06,0-.12,0-.19,0-.04,0-.09,0-.13,0-.07,0-.14,0-.21-.01-.04,0-.08,0-.12-.01-.07,0-.14-.02-.2-.03-.04,0-.08-.01-.12-.02-.06-.01-.13-.03-.19-.05-.04-.01-.09-.02-.13-.04-.06-.02-.12-.04-.18-.06-.04-.02-.09-.03-.13-.05-.06-.03-.12-.05-.18-.08-.04-.02-.07-.04-.11-.06-.06-.04-.13-.07-.19-.11-.02-.01-.05-.03-.07-.05-.07-.05-.14-.1-.2-.15-.01-.01-.02-.02-.04-.03-.07-.06-.14-.12-.21-.18,0,0-.02-.02-.02-.02-.07-.07-.13-.14-.19-.21,0-.01-.02-.02-.03-.03-.06-.07-.11-.14-.16-.21-.01-.02-.03-.04-.04-.06-.04-.07-.09-.13-.12-.2-.02-.03-.03-.06-.05-.1-.03-.06-.06-.12-.09-.18-.02-.04-.04-.09-.05-.13-.02-.05-.04-.11-.06-.17-.02-.05-.03-.09-.04-.14-.02-.06-.03-.11-.05-.17-.01-.04-.02-.09-.03-.13-.01-.07-.02-.13-.03-.2,0-.04,0-.07-.01-.11,0-.08-.01-.15-.02-.23-.02-.51.08-1.03.31-1.52h0s7.35-15.91,7.35-15.91l-.97.02-7.17,15.52c-.28.6-.4,1.23-.39,1.85h0s0,.04,0,.06c0,.09,0,.18.02.27,0,.06.01.11.02.16.01.08.02.15.04.22.01.06.02.13.04.19.02.06.03.13.05.19.02.07.04.14.06.2.02.06.05.12.07.19.02.06.05.12.08.19.03.07.07.14.1.2.03.05.05.1.08.15.04.08.09.15.14.23.02.03.04.07.06.1.06.09.12.17.19.25.02.02.03.04.05.06.07.09.15.17.23.25.01.01.03.03.04.04.08.08.16.15.25.23.02.02.04.03.06.05.08.06.16.13.25.19.03.02.06.04.09.06.08.05.15.1.24.14.05.03.09.05.14.08.04.02.08.05.12.06.03.01.06.03.1.04.06.02.11.05.17.07.07.03.14.05.22.08.06.02.12.04.17.05.08.02.15.04.23.06.05.01.11.02.17.03.08.01.16.03.25.04.05,0,.11.01.16.01.08,0,.17.01.25.01.03,0,.05,0,.08,0,.03,0,.07,0,.1,0,.08,0,.15,0,.23-.01.07,0,.14-.01.21-.02.06,0,.12-.02.17-.03.08-.01.17-.03.25-.05.04-.01.09-.02.13-.03.09-.02.18-.05.27-.08.04-.01.07-.03.11-.04.09-.03.18-.07.26-.11.04-.02.08-.04.12-.06.08-.04.15-.08.23-.12.05-.03.1-.06.15-.09.06-.04.12-.08.18-.12.06-.04.12-.08.17-.13.05-.04.09-.07.14-.11.06-.05.12-.11.18-.16.04-.04.08-.07.11-.11.05-.05.09-.1.14-.15-.08-.42-.14-.84-.18-1.27Z"/><path class="cls-4" d="m16.85,9.15l-.38.82c1.56.29,3,.89,4.27,1.73.19-.23.39-.44.59-.66-1.33-.91-2.85-1.56-4.48-1.89Z"/><path class="cls-3" d="m32.14,34.99v.68c1.52,0,2.99-.24,4.36-.68h-4.36Z"/><path class="cls-1" d="m46.26,24.05c.18-.9.27-1.83.27-2.78h-.87c0,.95-.1,1.89-.29,2.78h.89Z"/><path class="cls-4" d="m44.18,24.05c.21-.9.32-1.83.32-2.78h-.87c0,.96-.12,1.89-.34,2.78h.9Z"/><path class="cls-4" d="m42.08,24.05c.25-.89.38-1.82.38-2.78h-.87c0,.97-.15,1.9-.42,2.78h.91Z"/><path class="cls-4" d="m39.95,24.05c.31-.87.48-1.81.48-2.78h-.87c0,.98-.19,1.92-.54,2.78h.93Z"/><path class="cls-4" d="m37.74,24.05c.42-.84.66-1.78.66-2.78h-.87c0,1.02-.28,1.97-.78,2.78h.99Z"/><path class="cls-4" d="m35.3,24.05c.66-.74,1.06-1.72,1.06-2.78h-.87c0,1.16-.59,2.18-1.5,2.78h1.31Z"/><path class="cls-4" d="m32.14,24.61h0c-1.84,0-3.35-1.5-3.35-3.35,0-.06,0-.12,0-.19,0-.06,0-.12.01-.19,0-.05.01-.09.02-.14,0-.06.02-.12.03-.19,0-.05.02-.09.03-.14.02-.06.03-.12.05-.18.01-.05.03-.09.05-.14.02-.05.04-.11.06-.16.02-.05.05-.1.07-.14.02-.05.05-.1.07-.14.03-.05.06-.1.09-.15.02-.04.05-.08.07-.12.04-.05.08-.11.12-.16.02-.03.05-.06.07-.09.05-.06.1-.11.15-.17.02-.02.04-.04.06-.06.06-.06.12-.12.18-.17.02-.01.03-.03.05-.04.07-.06.14-.11.22-.17.01,0,.02-.02.03-.02.08-.06.16-.11.25-.16,0,0,.01,0,.02-.01.09-.05.18-.1.27-.14,0,0,0,0,.01,0,.1-.04.19-.08.29-.11,0,0,0,0,0,0,.1-.03.2-.06.3-.08,0,0,0,0,.01,0,.1-.02.2-.04.3-.05,0,0,.02,0,.03,0,.1-.01.19-.02.29-.02.03,0,.07,0,.1,0,1.84,0,3.35,1.5,3.35,3.35h.87c0-2.33-1.89-4.22-4.22-4.22-.02,0-.04,0-.06,0h0s-.03,0-.05,0c-.13,0-.25.01-.37.02-.01,0-.02,0-.03,0-.13.02-.26.04-.38.06,0,0-.01,0-.02,0-.13.03-.26.06-.38.1,0,0,0,0-.01,0-.13.04-.25.09-.37.14,0,0-.01,0-.02,0-.12.05-.23.11-.35.17,0,0-.02.01-.03.02-.11.06-.21.12-.31.19-.02.01-.03.02-.04.03-.09.07-.19.13-.27.21-.02.02-.04.04-.06.06-.08.07-.16.14-.23.21-.03.03-.05.06-.08.09-.06.07-.13.14-.19.21-.03.04-.06.08-.09.12-.05.07-.1.13-.15.2-.03.05-.06.1-.1.15-.04.06-.08.12-.11.19-.03.06-.06.12-.09.19-.03.06-.06.12-.08.18-.03.07-.05.14-.08.21-.02.06-.04.11-.06.17-.02.08-.04.15-.06.23-.01.06-.03.11-.04.17-.02.08-.03.16-.04.24,0,.06-.02.11-.03.17,0,.08-.01.16-.02.24,0,.05,0,.1-.01.16h0s0,.04,0,.06c0,2.33,1.89,4.22,4.22,4.22h45.8v-.87h-45.8Z"/><path class="cls-4" d="m26.76,21.27c0-.09,0-.17,0-.26,0,0,0-.01,0-.02,0-.08.01-.17.02-.25,0,0,0-.01,0-.02,0-.08.02-.16.03-.24,0,0,0-.02,0-.02.01-.08.03-.16.04-.24,0,0,0-.02,0-.03.02-.08.03-.16.05-.23,0,0,0-.02,0-.02.02-.08.04-.15.06-.23,0,0,0-.02,0-.03.02-.08.05-.15.08-.22,0,0,0-.02,0-.02.03-.07.06-.15.09-.22,0,0,0-.02,0-.02.03-.07.06-.14.1-.22,0,0,0-.01,0-.02.03-.07.07-.14.11-.21,0,0,0-.01,0-.02.04-.07.08-.14.12-.21,0,0,0,0,0-.01.04-.07.09-.14.13-.21,0,0,0,0,0-.01.05-.07.09-.14.14-.2,0,0,0,0,0,0,.05-.07.1-.13.15-.2,0,0,0,0,0,0,.05-.07.11-.13.17-.19h0c.57-.64,1.29-1.13,2.11-1.44,0,0,0,0,0,0,.08-.03.16-.06.24-.08,0,0,0,0,0,0,.08-.03.16-.05.24-.07,0,0,.01,0,.02,0,.08-.02.15-.04.23-.06,0,0,.02,0,.03,0,.08-.02.15-.03.23-.04.01,0,.02,0,.04,0,.07-.01.14-.02.22-.03.02,0,.03,0,.05,0,.07,0,.14-.01.21-.02.02,0,.04,0,.07,0,.07,0,.13,0,.2,0,.04,0,.08,0,.12,0,2.97,0,5.38,2.41,5.38,5.38h.87c0-3.45-2.81-6.25-6.25-6.25-.02,0-.04,0-.06,0h0s-.05,0-.07,0c-.08,0-.15,0-.23,0-.02,0-.05,0-.07,0-.08,0-.16.01-.24.02-.02,0-.04,0-.06,0-.09.01-.17.02-.26.04-.01,0-.03,0-.04,0-.09.02-.18.03-.27.05,0,0-.02,0-.03,0-.09.02-.18.04-.27.07,0,0-.01,0-.02,0-.09.03-.19.05-.28.08,0,0,0,0,0,0-.97.31-1.83.85-2.53,1.56,0,0,0,0,0,0-.07.07-.14.14-.2.21,0,0,0,0,0,0-.06.07-.13.14-.19.22,0,0,0,0,0,.01-.06.07-.12.15-.17.22,0,0,0,.01-.01.02-.06.07-.11.15-.16.23,0,0,0,.01-.01.02-.05.08-.1.15-.15.23,0,0,0,.02-.01.03-.05.08-.09.15-.13.23,0,.01-.01.02-.02.03-.04.08-.08.16-.12.24,0,.01-.01.02-.02.03-.04.08-.07.16-.11.24,0,.01-.01.03-.02.04-.03.08-.07.16-.1.24,0,.01,0,.03-.01.04-.03.08-.06.16-.08.25,0,.01,0,.03-.01.04-.03.08-.05.17-.07.25,0,.01,0,.03-.01.04-.02.09-.04.17-.06.26,0,.01,0,.03,0,.04-.02.09-.03.18-.05.26,0,.01,0,.03,0,.04-.01.09-.02.18-.03.27,0,.01,0,.02,0,.04,0,.09-.02.19-.02.28,0,.01,0,.02,0,.03,0,.08,0,.15,0,.23h0s0,.04,0,.06c0,3.45,2.81,6.25,6.25,6.25h45.8v-.87h-45.8c-2.97,0-5.38-2.41-5.38-5.38Z"/><path class="cls-4" d="m24.72,21.27c0-.11,0-.23,0-.34,0-.02,0-.03,0-.05,0-.11.01-.22.02-.32,0-.02,0-.04,0-.05.01-.1.02-.21.04-.31,0-.02,0-.04,0-.06.02-.1.03-.2.05-.3,0-.02,0-.04.01-.06.02-.1.04-.2.07-.3,0-.02,0-.04.01-.06.03-.1.05-.2.08-.29,0-.02.01-.04.02-.06.03-.1.06-.19.1-.29,0-.02.01-.04.02-.06.03-.09.07-.19.11-.28,0-.02.01-.04.02-.05.04-.09.08-.19.12-.28,0-.02.01-.03.02-.05.04-.09.09-.18.14-.28,0-.01.01-.03.02-.04.05-.09.1-.18.16-.27,0-.01.01-.02.02-.04.06-.09.11-.18.17-.27,0-.01.01-.02.02-.03.06-.09.12-.18.19-.27,0,0,.01-.02.02-.02.07-.09.13-.17.2-.26,0,0,0-.01.01-.02.07-.09.15-.17.22-.26,0,0,0,0,.01-.01.08-.09.16-.17.24-.25,0,0,0,0,0,0,.08-.08.17-.16.25-.24,0,0,0,0,0,0,.7-.64,1.51-1.14,2.41-1.48,0,0,0,0,0,0,.11-.04.22-.08.33-.11,0,0,0,0,.01,0,.11-.03.22-.07.33-.1,0,0,.01,0,.02,0,.11-.03.22-.05.32-.08.01,0,.02,0,.03,0,.1-.02.21-.04.32-.06.02,0,.03,0,.05,0,.1-.02.2-.03.3-.04.02,0,.04,0,.07,0,.1-.01.19-.02.29-.02.03,0,.06,0,.09,0,.09,0,.18,0,.28,0,.05,0,.1,0,.15,0,4.09,0,7.42,3.33,7.42,7.42h.87c0-4.57-3.72-8.29-8.29-8.29-.02,0-.04,0-.06,0h0s-.08,0-.12,0c-.09,0-.19,0-.28,0-.04,0-.08,0-.12,0-.1,0-.2.01-.3.02-.03,0-.07,0-.1.01-.1.01-.21.03-.31.04-.03,0-.06.01-.08.01-.11.02-.22.04-.32.06-.02,0-.04.01-.07.02-.11.02-.22.05-.33.08-.02,0-.03,0-.05.01-.11.03-.23.06-.34.1-.01,0-.02,0-.04.01-.12.04-.23.08-.35.12,0,0-.02,0-.03.01-.12.04-.23.09-.35.14,0,0-.01,0-.02,0-.12.05-.23.1-.35.16,0,0,0,0,0,0-.12.06-.23.12-.35.18,0,0,0,0,0,0-.11.06-.23.13-.34.2,0,0,0,0,0,0-.11.07-.22.14-.33.21,0,0,0,0,0,0-.11.07-.22.15-.32.23,0,0,0,0,0,0-.1.08-.21.16-.31.24,0,0,0,0,0,0-.1.08-.2.17-.29.26,0,0,0,0,0,0-.1.09-.19.18-.28.27,0,0,0,0,0,0-.09.09-.18.18-.26.28,0,0,0,0-.01.01-.08.09-.17.19-.25.29,0,0,0,.01-.01.02-.08.1-.16.19-.23.29,0,0-.01.02-.02.02-.07.1-.14.2-.21.3,0,0-.01.02-.02.03-.07.1-.13.2-.2.31,0,.01-.01.02-.02.03-.06.1-.12.21-.18.31,0,.01-.01.02-.02.04-.06.11-.11.21-.16.32,0,.01-.01.03-.02.04-.05.11-.1.21-.15.32,0,.01-.01.03-.02.05-.05.11-.09.22-.13.33,0,.01-.01.03-.02.05-.04.11-.08.22-.11.34,0,.02,0,.03-.01.05-.03.11-.07.23-.1.35,0,.01,0,.03-.01.04-.03.12-.06.24-.08.35,0,.01,0,.03,0,.04-.02.12-.05.24-.06.36,0,.01,0,.03,0,.04-.02.12-.03.25-.05.37,0,.01,0,.03,0,.04-.01.13-.02.25-.03.38,0,.01,0,.02,0,.03,0,.11-.01.22-.01.33h0s0,.04,0,.06c0,4.57,3.72,8.29,8.29,8.29h45.8v-.87h-45.8c-4.09,0-7.42-3.33-7.42-7.42Z"/><path class="cls-4" d="m32.14,30.72c-5.21,0-9.45-4.24-9.45-9.45,0-.14,0-.27.01-.41,0-.03,0-.06,0-.09,0-.13.02-.26.03-.39,0-.03,0-.06,0-.09.01-.13.03-.25.05-.38,0-.03,0-.06.01-.1.02-.12.04-.25.07-.37,0-.03.01-.06.02-.1.02-.12.05-.24.08-.36,0-.03.01-.06.02-.1.03-.12.06-.24.1-.35,0-.03.02-.06.03-.09.04-.12.08-.23.12-.35.01-.03.02-.06.03-.09.04-.12.09-.23.13-.34.01-.03.02-.06.03-.08.05-.11.1-.23.15-.34.01-.03.02-.05.03-.08.05-.11.11-.23.17-.34.01-.02.02-.05.04-.07.06-.11.13-.22.19-.33.01-.02.02-.04.04-.06.07-.11.14-.22.21-.33.01-.02.02-.03.03-.05.07-.11.15-.22.23-.33,0-.01.02-.03.03-.04.08-.11.17-.22.25-.32,0-.01.02-.02.02-.03.09-.11.18-.21.28-.32,0,0,.01-.01.02-.02.1-.11.19-.21.3-.31,0,0,0-.01.01-.02.1-.1.21-.21.32-.3,0,0,0,0,0,0,.11-.1.22-.2.34-.29,0,0,0,0,0,0,.81-.67,1.74-1.22,2.74-1.59,0,0,0,0,0,0,.14-.05.28-.1.43-.15,0,0,0,0,.01,0,.14-.04.28-.09.43-.12,0,0,.01,0,.02,0,.14-.04.28-.07.42-.1.01,0,.02,0,.04,0,.14-.03.27-.05.41-.08.02,0,.04,0,.05,0,.13-.02.26-.04.4-.05.02,0,.05,0,.07,0,.13-.01.25-.02.38-.03.03,0,.06,0,.1,0,.12,0,.24,0,.36-.01.06,0,.11,0,.17,0,5.21,0,9.45,4.24,9.45,9.45h.87c0-5.69-4.63-10.33-10.33-10.33-.02,0-.04,0-.06,0h0c-.05,0-.1,0-.15,0-.12,0-.24,0-.36.01-.05,0-.1,0-.14.01-.13,0-.25.02-.38.03-.04,0-.08.01-.12.02-.13.02-.27.03-.4.05-.03,0-.06.01-.1.02-.14.02-.27.05-.41.08-.03,0-.05.01-.08.02-.14.03-.28.06-.42.1-.02,0-.04.01-.06.02-.15.04-.29.08-.43.13-.01,0-.03,0-.04.01-.15.05-.29.1-.44.15-.01,0-.02,0-.03.01-.15.06-.29.11-.44.18,0,0-.01,0-.02,0-.15.06-.29.13-.44.2,0,0,0,0-.01,0-.15.07-.29.15-.43.22,0,0,0,0,0,0-.14.08-.28.16-.42.24,0,0,0,0,0,0-.14.09-.28.17-.41.27,0,0,0,0,0,0-.13.09-.27.19-.4.28,0,0,0,0,0,0-.13.1-.26.2-.38.3,0,0,0,0-.01,0-.12.1-.24.21-.36.32,0,0,0,0-.01.01-.12.11-.23.22-.34.33,0,0-.01.01-.02.02-.11.11-.22.22-.32.34,0,0-.01.02-.02.02-.1.11-.2.23-.3.35,0,0-.02.02-.02.03-.1.12-.19.24-.28.36,0,.01-.02.03-.03.04-.09.12-.18.24-.26.37-.01.02-.02.03-.03.05-.08.12-.16.25-.24.37-.01.02-.02.04-.03.05-.07.12-.15.25-.22.38-.01.02-.02.04-.03.06-.07.13-.13.26-.2.39-.01.02-.02.04-.03.06-.06.13-.12.26-.18.39,0,.02-.02.05-.03.07-.05.13-.11.26-.16.4,0,.02-.02.05-.03.07-.05.13-.09.27-.14.41,0,.02-.01.05-.02.07-.04.14-.08.27-.12.41,0,.03-.01.05-.02.08-.03.14-.07.28-.1.42,0,.02,0,.05-.01.07-.03.14-.05.29-.08.43,0,.02,0,.05,0,.07-.02.15-.04.29-.06.44,0,.02,0,.05,0,.07-.01.15-.03.3-.03.45,0,.02,0,.04,0,.06,0,.14-.01.27-.01.41h0s0,.04,0,.06c0,5.69,4.63,10.33,10.33,10.33h45.77v-.87h-45.77Z"/><path class="cls-4" d="m32.14,32.76c-6.34,0-11.49-5.15-11.49-11.49,0-.16,0-.32.01-.49,0-.04,0-.08,0-.12,0-.15.02-.31.04-.46,0-.04,0-.08,0-.12.02-.15.04-.3.06-.45,0-.04.01-.08.02-.12.02-.15.05-.29.08-.44,0-.04.01-.08.02-.13.03-.14.06-.29.1-.43.01-.04.02-.08.03-.12.04-.14.08-.28.12-.42.01-.04.02-.08.03-.12.04-.14.09-.28.14-.42.01-.04.03-.08.04-.12.05-.14.11-.27.16-.41.02-.04.03-.07.04-.11.06-.14.12-.27.18-.4.02-.03.03-.07.05-.1.07-.14.13-.27.21-.4.02-.03.03-.06.05-.09.07-.13.15-.27.23-.4.02-.03.03-.05.05-.08.08-.13.17-.27.25-.4.01-.02.03-.05.04-.07.09-.13.18-.26.28-.39.01-.02.03-.04.04-.06.1-.13.2-.26.3-.39.01-.01.02-.03.04-.04.11-.13.22-.26.33-.38.01-.01.02-.02.03-.03.12-.13.23-.25.36-.38,0,0,.01-.02.02-.02.12-.13.25-.25.38-.37,0,0,0,0,.01-.01.13-.12.27-.24.41-.36,0,0,0,0,0,0,.14-.12.28-.23.43-.34,0,0,0,0,0,0,.88-.66,1.86-1.2,2.9-1.59l.04-.02s.49-.17.49-.17c0,0,0,0,0,0,.17-.05.34-.1.51-.15,0,0,.02,0,.03,0,.17-.04.34-.08.51-.12.02,0,.03,0,.05-.01.16-.03.33-.06.5-.09.02,0,.05,0,.07-.01.16-.03.32-.05.48-.06.03,0,.06,0,.09-.01.15-.02.31-.03.46-.04.04,0,.08,0,.12,0,.15,0,.29-.01.44-.01.07,0,.13,0,.19,0,6.34,0,11.49,5.15,11.49,11.49h.87c0-6.82-5.55-12.36-12.36-12.36-.02,0-.04,0-.06,0h0s-.09,0-.13,0c-.16,0-.33,0-.49.01-.04,0-.08,0-.12,0-.17.01-.34.02-.51.04-.03,0-.06,0-.09.01-.18.02-.35.04-.53.07-.02,0-.04,0-.06.01-.18.03-.37.06-.55.1-.01,0-.03,0-.04,0-.19.04-.37.08-.56.13,0,0-.01,0-.02,0-.19.05-.38.1-.56.16,0,0,0,0,0,0-1.54.49-2.95,1.27-4.16,2.27,0,0,0,0,0,0-.15.12-.3.25-.44.38,0,0-.01.01-.02.02-.14.13-.28.26-.41.39,0,0-.02.02-.02.03-.13.13-.26.27-.38.4-.01.01-.02.03-.03.04-.12.13-.24.27-.35.41-.01.02-.03.04-.04.05-.11.14-.22.27-.32.41-.02.02-.03.05-.05.07-.1.14-.2.27-.29.42-.02.03-.03.05-.05.08-.09.14-.18.28-.27.42-.02.03-.04.06-.05.09-.08.14-.16.28-.24.42-.02.04-.04.07-.06.11-.07.14-.15.28-.22.42-.02.04-.04.08-.06.12-.07.14-.13.28-.19.42-.02.04-.03.09-.05.13-.06.14-.12.28-.17.43-.02.05-.03.09-.05.14-.05.14-.1.29-.15.43-.01.05-.03.1-.04.14-.04.15-.09.29-.12.44-.01.05-.02.1-.04.15-.04.15-.07.3-.1.45-.01.05-.02.1-.03.15-.03.15-.06.3-.08.46,0,.05-.01.1-.02.15-.02.16-.04.31-.06.47,0,.05,0,.1-.01.15-.01.16-.03.32-.04.48,0,.05,0,.09,0,.14,0,.15-.01.3-.01.45h0s0,.04,0,.06c0,6.82,5.55,12.36,12.36,12.36h45.75v-.87h-45.75Z"/><path class="cls-1" d="m18.61,21.27c0-.18,0-.36.01-.54,0-.05,0-.11,0-.16,0-.17.02-.34.04-.52,0-.06,0-.11.01-.17.02-.17.04-.34.06-.5,0-.06.01-.11.02-.17.03-.16.06-.33.09-.49.01-.06.02-.12.03-.17.03-.16.07-.32.11-.48.01-.06.03-.11.04-.17.04-.16.09-.32.13-.47.02-.06.03-.11.05-.17.05-.16.1-.31.16-.47.02-.05.04-.11.06-.16.06-.16.12-.31.18-.46.02-.05.04-.1.06-.15.07-.15.14-.31.21-.46.02-.05.04-.09.06-.14.07-.15.15-.31.23-.46.02-.04.04-.08.06-.12.08-.15.17-.31.26-.46.02-.04.04-.07.06-.11.09-.15.19-.3.29-.45.02-.03.04-.06.06-.09.1-.15.21-.3.32-.45.02-.03.04-.05.05-.08.11-.15.23-.3.35-.45.02-.02.03-.04.05-.06.12-.15.25-.3.38-.45.01-.01.03-.03.04-.04.13-.15.27-.29.41-.44.01-.01.02-.02.03-.03.15-.15.29-.29.45-.43,0,0,.01-.01.02-.02.16-.14.31-.28.48-.41,0,0,0,0,.01,0,.17-.14.34-.27.51-.4,0,0,0,0,0,0,1.21-.91,2.57-1.62,4.05-2.09h.03s.61-.18.61-.19c0,0,0,0,0,0,.2-.05.41-.1.61-.14.01,0,.03,0,.04,0,.2-.04.4-.08.6-.11.02,0,.04,0,.06-.01.19-.03.39-.06.59-.08.03,0,.06,0,.09-.01.19-.02.38-.03.57-.05.04,0,.08,0,.12,0,.18,0,.36-.01.54-.02.07,0,.13,0,.2,0,7.46,0,13.53,6.07,13.53,13.53h.87c0-7.94-6.46-14.4-14.4-14.4-.02,0-.04,0-.06,0h0c-.07,0-.13,0-.2,0-.17,0-.35,0-.52.02-.06,0-.12,0-.18.01-.18.01-.37.03-.55.04-.05,0-.1.01-.15.02-.19.02-.38.05-.57.08-.04,0-.08.01-.12.02-.2.03-.4.07-.59.11-.03,0-.06.01-.09.02-.2.04-.41.09-.61.14-.02,0-.04.01-.06.02-.21.06-.41.11-.62.18-.02,0-.03.01-.05.02-.21.07-.42.14-.62.21-.01,0-.02,0-.03.01-.21.08-.42.16-.62.25,0,0-.01,0-.02,0-.21.09-.41.18-.62.28,0,0,0,0-.01,0-.2.1-.41.2-.6.31,0,0,0,0,0,0-.2.11-.4.22-.59.34,0,0,0,0,0,0-.19.12-.39.24-.57.37,0,0,0,0,0,0-.19.13-.37.26-.55.4,0,0,0,0-.01.01-.18.13-.36.27-.53.42,0,0-.01.01-.02.02-.17.14-.34.29-.5.44,0,0-.02.02-.03.02-.16.15-.32.3-.47.45-.01.01-.02.02-.03.03-.15.15-.3.31-.44.47-.01.01-.02.03-.04.04-.14.16-.28.32-.41.48-.01.02-.03.04-.04.06-.13.16-.26.32-.38.49-.02.02-.03.05-.05.07-.12.16-.24.33-.35.49-.02.03-.03.05-.05.08-.11.16-.22.33-.32.5-.02.03-.04.06-.05.09-.1.17-.2.34-.29.51-.02.03-.04.07-.05.11-.09.17-.18.34-.26.51-.02.04-.03.08-.05.11-.08.17-.16.34-.24.52-.02.04-.03.08-.05.12-.07.17-.14.35-.21.53-.02.04-.03.09-.04.13-.06.18-.12.35-.18.54-.01.05-.03.09-.04.14-.05.18-.11.36-.15.54-.01.05-.02.09-.03.14-.05.18-.09.37-.13.56,0,.05-.02.09-.03.14-.04.19-.07.38-.1.57,0,.05-.01.09-.02.14-.03.19-.05.39-.07.58,0,.04,0,.09-.01.13-.02.2-.04.4-.05.6,0,.04,0,.08,0,.12,0,.19-.02.37-.02.56h0s0,.04,0,.06c0,7.94,6.46,14.4,14.4,14.4h45.75v-.87h-45.75c-7.46,0-13.53-6.07-13.53-13.53Z"/><path class="cls-2" d="m22.17,10.21c.22-.2.45-.39.69-.58-1.51-1.1-3.25-1.92-5.12-2.37l-.38.81c1.76.39,3.39,1.13,4.81,2.14Z"/><path class="cls-4" d="m1.36,14.96C.42,16.96-.01,19.07,0,21.14h0s0,.03,0,.04c0,.09,0,.17,0,.26.06,2.5.77,4.84,1.95,6.87.04.07.08.13.12.2.05.08.1.15.15.23.08.14.17.27.26.4,0,0,0,0,0,.01,1.37,2.02,3.26,3.72,5.6,4.86.03.02.07.03.1.05.03.01.06.03.09.05.11.05.22.1.34.15.08.04.16.07.25.11.12.05.25.1.37.15.1.04.2.08.3.11.12.04.25.08.37.12.1.03.2.07.31.1.13.04.26.07.39.11.1.03.2.05.29.08.14.03.28.07.42.1.09.02.18.04.27.06.15.03.3.06.45.08.08.01.16.03.25.04.16.02.32.04.48.06.08,0,.15.02.23.03.16.02.33.03.49.04.08,0,.16.01.24.01.15,0,.3,0,.45.01.07,0,.15,0,.22,0,.02,0,.04,0,.06,0,.11,0,.22,0,.33,0,.14,0,.28,0,.43-.01,0,0,.01,0,.02,0,2.33-.13,4.51-.83,6.42-1.94.05-.03.09-.05.14-.08.1-.06.2-.12.29-.18.11-.07.23-.14.34-.22.03-.02.06-.04.08-.06.11-.07.22-.15.33-.23-.23-.19-.46-.38-.69-.59-.04.03-.08.06-.12.09-.03.02-.06.04-.09.06-.1.07-.21.13-.31.2-.09.06-.19.12-.28.18-.04.02-.08.05-.12.07-1.84,1.07-3.91,1.7-6.04,1.83,0,0,0,0-.01,0-.13,0-.27,0-.4.01-.1,0-.2,0-.3,0-.09,0-.18,0-.27,0-.14,0-.29,0-.43-.01-.07,0-.15,0-.22-.01-.15,0-.31-.02-.46-.03-.07,0-.14-.02-.21-.02-.15-.02-.3-.04-.45-.06-.08-.01-.15-.02-.23-.04-.14-.02-.29-.05-.43-.08-.08-.02-.17-.04-.25-.05-.13-.03-.27-.06-.4-.09-.09-.02-.18-.05-.27-.07-.12-.03-.25-.07-.37-.1-.09-.03-.19-.06-.28-.09-.12-.04-.24-.08-.35-.12-.09-.03-.18-.07-.27-.1-.12-.05-.24-.09-.36-.14-.07-.03-.15-.06-.22-.1-.14-.06-.28-.12-.41-.19-.03-.01-.05-.03-.08-.04-2.13-1.04-3.96-2.63-5.28-4.58h0c-.09-.13-.17-.26-.25-.39-.04-.07-.09-.14-.13-.2-.04-.07-.08-.13-.12-.2-.08-.14-.16-.27-.23-.41,0,0,0,0,0,0-.98-1.85-1.53-3.91-1.59-6.02,0-.08,0-.17,0-.25-.02-1.96.39-3.95,1.28-5.84L9.34,0h-.96L1.36,14.96Z"/><path class="cls-2" d="m3.99,16.2L11.59,0h-.96L3.2,15.83c-.81,1.72-1.18,3.53-1.17,5.31h0s0,.02,0,.03c0,.08,0,.17,0,.25.05,1.98.57,3.84,1.45,5.48,0,0,0,0,0,.01.07.13.14.25.21.37.04.06.07.13.11.19.04.06.08.13.12.19.08.12.15.24.23.36,0,0,0,0,0,0,1.18,1.74,2.81,3.2,4.82,4.18.02.01.05.02.07.04.03.01.05.03.08.04.1.05.2.09.3.13.07.03.13.06.2.09.11.05.22.09.33.13.08.03.16.06.25.09.11.04.22.07.33.11.08.03.17.06.25.08.11.03.23.07.34.1.08.02.16.04.24.06.12.03.25.06.37.09.07.02.15.03.22.05.13.03.27.05.4.07.07.01.13.02.2.03.14.02.28.04.42.05.06,0,.12.01.19.02.14.01.29.02.43.03.06,0,.13,0,.19.01.14,0,.27,0,.41.01.06,0,.12,0,.18,0,.02,0,.03,0,.05,0,.1,0,.2,0,.3,0,.12,0,.23,0,.35-.01.01,0,.02,0,.03,0,1.99-.12,3.86-.71,5.49-1.66.04-.02.08-.05.13-.07.08-.05.17-.1.25-.16.1-.06.2-.12.29-.19,0,0,.02-.01.02-.02-.2-.21-.4-.43-.58-.66-.07.04-.14.09-.21.13-.07.05-.15.09-.22.14-.04.03-.09.05-.13.07-1.55.9-3.29,1.43-5.08,1.54-.02,0-.03,0-.05,0-.1,0-.21,0-.31.01-.1,0-.19,0-.29,0-.07,0-.13,0-.2,0-.13,0-.26,0-.39,0-.05,0-.11,0-.16-.01-.14,0-.28-.02-.41-.03-.05,0-.11-.01-.16-.02-.13-.02-.27-.03-.4-.05-.06,0-.12-.02-.18-.03-.13-.02-.25-.04-.38-.07-.07-.01-.13-.03-.2-.04-.12-.03-.23-.05-.35-.08-.07-.02-.15-.04-.22-.06-.11-.03-.22-.06-.32-.09-.08-.02-.15-.05-.23-.07-.1-.03-.21-.07-.31-.1-.08-.03-.15-.06-.23-.09-.1-.04-.21-.08-.31-.12-.06-.03-.12-.05-.18-.08-.12-.05-.24-.1-.35-.16-.02-.01-.04-.02-.06-.03-1.81-.88-3.36-2.23-4.48-3.88,0,0,0,0,0,0-.07-.11-.14-.22-.21-.33-.04-.06-.08-.12-.11-.18-.03-.06-.07-.12-.1-.17-.07-.11-.13-.23-.2-.35,0,0,0,0,0-.01-.83-1.56-1.3-3.31-1.35-5.09,0-.08,0-.15,0-.23-.02-1.67.33-3.36,1.08-4.97h0Z"/><path class="cls-2" d="m19.55,13.35c.15-.25.32-.49.48-.73-1.21-.79-2.59-1.34-4.07-1.56l-.39.83c1.45.18,2.81.69,3.98,1.46Z"/><path class="cls-2" d="m5.05,16.69c-.67,1.44-.99,2.95-.97,4.45h0s0,.01,0,.02c0,.06,0,.12,0,.17.04,1.66.47,3.22,1.21,4.6,0,0,0,.01.01.02.06.1.11.21.17.31.03.05.06.11.09.16.03.05.07.1.1.16.06.1.13.2.19.3,0,0,0,0,0,0,.98,1.45,2.35,2.67,4.03,3.49.02,0,.03.02.05.03.02.01.04.02.07.03.08.04.17.07.26.11.05.02.11.05.16.07.09.04.19.08.28.11.07.03.13.05.2.08.09.03.19.06.28.1.07.02.13.04.2.07.1.03.2.06.3.08.06.02.13.04.19.05.11.03.21.05.32.07.06.01.11.03.17.04.12.02.23.04.35.06.05,0,.1.02.15.02.12.02.25.03.37.05.05,0,.09.01.14.02.13.01.26.02.38.03.05,0,.09,0,.14,0,.12,0,.24,0,.37,0,.04,0,.09,0,.13,0,.01,0,.02,0,.03,0,.09,0,.19,0,.28,0,.09,0,.17,0,.26,0,.02,0,.04,0,.06,0,1.65-.1,3.19-.59,4.54-1.37.04-.02.08-.05.13-.07.07-.04.13-.08.19-.12.04-.03.08-.05.13-.08-.17-.24-.33-.48-.48-.73-.03.02-.07.04-.1.07-.06.04-.12.08-.18.12-.04.02-.07.04-.11.06-1.27.73-2.69,1.17-4.16,1.26-.02,0-.04,0-.05,0-.08,0-.16,0-.24,0-.09,0-.17,0-.26,0-.05,0-.1,0-.15,0-.11,0-.23,0-.34,0-.04,0-.08,0-.12,0-.12,0-.24-.02-.36-.03-.04,0-.08,0-.12-.01-.12-.01-.23-.03-.35-.04-.04,0-.09-.01-.13-.02-.11-.02-.22-.04-.32-.06-.05-.01-.1-.02-.15-.03-.1-.02-.2-.04-.3-.07-.06-.01-.11-.03-.17-.04-.09-.03-.19-.05-.28-.08-.06-.02-.12-.04-.18-.06-.09-.03-.18-.06-.27-.09-.06-.02-.11-.04-.17-.07-.09-.03-.18-.07-.27-.11-.05-.02-.09-.04-.14-.06-.1-.04-.21-.09-.31-.14,0,0-.02,0-.03-.01-1.6-.78-2.95-1.99-3.9-3.49-.03-.04-.06-.09-.08-.13-.03-.05-.06-.11-.1-.17-.05-.09-.1-.17-.15-.26,0-.01-.01-.03-.02-.04-.67-1.27-1.05-2.69-1.1-4.14,0-.07,0-.14,0-.21-.01-1.37.27-2.77.89-4.09h0S13.84,0,13.84,0h-.96l-7.83,16.69Z"/><path class="cls-2" d="m18.59,15.16c.12-.27.25-.53.38-.79-1.14-.76-2.48-1.24-3.92-1.36l-.4.85c1.46.05,2.81.52,3.94,1.3Z"/><path class="cls-2" d="m6.89,17.56c-.54,1.16-.79,2.38-.78,3.58h0s0,0,0,0c0,.05,0,.1,0,.15.03,1.32.38,2.56.96,3.66,0,.01.01.03.02.04.04.08.09.15.13.23.03.05.06.1.08.15.02.04.05.08.07.12.05.08.11.17.16.25,0,0,0,0,0,0,.8,1.17,1.9,2.15,3.26,2.81,0,0,0,0,.01,0,.02,0,.04.02.06.03.07.03.15.07.22.1.04.02.07.03.11.05.08.03.16.07.25.1.05.02.09.04.14.05.08.03.16.06.24.08.05.02.1.03.15.05.08.03.17.05.25.07.05.01.09.03.14.04.09.02.18.04.27.06.04,0,.08.02.12.03.1.02.2.04.3.05.03,0,.07.01.1.02.11.02.21.03.32.04.03,0,.06,0,.09.01.11.01.22.02.33.02.03,0,.06,0,.09,0,.1,0,.21,0,.31,0,.03,0,.06,0,.09,0,0,0,.01,0,.02,0,.08,0,.16,0,.25,0,.06,0,.12,0,.19,0,.02,0,.05,0,.07,0,1.2-.08,2.34-.41,3.35-.95,0,0,0,0,0,0,.09-.05.18-.1.26-.15.04-.02.08-.04.11-.06.05-.03.1-.06.15-.09.05-.03.11-.07.16-.1-.13-.26-.26-.53-.38-.79,0,0,0,0,0,0-.02.01-.03.02-.05.03-.06.04-.12.08-.18.12-.05.03-.09.06-.14.09-.03.02-.06.04-.1.06-.08.05-.16.09-.24.13,0,0,0,0,0,0-.93.49-1.95.78-3,.85-.02,0-.04,0-.06,0-.05,0-.11,0-.16,0-.08,0-.15,0-.23,0-.03,0-.06,0-.09,0-.1,0-.19,0-.29,0-.02,0-.05,0-.07,0-.1,0-.2-.01-.3-.02-.02,0-.05,0-.07,0-.1-.01-.19-.02-.29-.04-.03,0-.06,0-.09-.01-.09-.01-.18-.03-.27-.05-.03,0-.07-.01-.1-.02-.09-.02-.17-.04-.25-.06-.04,0-.08-.02-.11-.03-.08-.02-.16-.04-.24-.07-.04-.01-.08-.03-.12-.04-.08-.02-.15-.05-.23-.08-.04-.01-.08-.03-.11-.04-.08-.03-.16-.06-.23-.09-.03-.01-.05-.02-.08-.04-1.38-.6-2.55-1.61-3.35-2.87-.02-.03-.04-.06-.06-.09-.03-.05-.06-.1-.09-.15-.04-.06-.07-.12-.11-.19-.01-.02-.02-.04-.03-.06-.53-1-.82-2.11-.85-3.25,0-.05,0-.09,0-.14-.01-1.08.21-2.18.7-3.21L16.09,0h-.96L6.89,17.56Z"/><path class="cls-2" d="m13.69,15.94c.23-.03.47-.05.71-.05,1.32,0,2.53.48,3.47,1.27.08-.3.18-.6.28-.89-1.05-.79-2.34-1.26-3.75-1.26-.1,0-.19,0-.28,0l-.43.91Z"/><path class="cls-2" d="m8.74,18.42c-.41.88-.6,1.81-.59,2.72.01,1.02.27,1.99.72,2.84.01.02.02.04.03.06.03.05.06.1.09.15.03.04.05.09.08.13.01.02.03.05.04.07.62.99,1.51,1.81,2.64,2.34.07.03.13.06.2.09.02,0,.03.01.05.02.07.03.14.06.21.08.03.01.05.02.08.03.07.02.14.05.21.07.03,0,.06.02.09.03.07.02.14.04.21.06.03,0,.05.01.08.02.08.02.15.04.23.05.02,0,.05.01.07.02.08.02.16.03.24.04.02,0,.04,0,.06,0,.09.01.17.02.26.03.02,0,.03,0,.05,0,.09,0,.18.02.27.02.02,0,.03,0,.05,0,.09,0,.17,0,.26,0,.02,0,.03,0,.05,0,0,0,0,0,.01,0,.07,0,.14,0,.21,0,.04,0,.08,0,.12,0,.02,0,.04,0,.06,0,.9-.06,1.75-.31,2.5-.7,0,0,.01,0,.02,0,.06-.03.13-.07.19-.11.03-.02.06-.03.09-.05.04-.02.08-.05.11-.07.05-.03.11-.07.16-.1.01,0,.03-.02.04-.03.07-.05.15-.1.22-.16-.1-.29-.2-.59-.28-.89-.14.12-.28.23-.43.33-.01,0-.02.01-.03.02-.05.03-.1.06-.15.09-.03.02-.06.04-.09.06-.03.02-.06.03-.09.05-.05.03-.1.06-.15.09,0,0-.02,0-.03.01-.65.34-1.37.54-2.1.6-.03,0-.06,0-.1,0-.02,0-.04,0-.07,0-.07,0-.14,0-.21,0,0,0-.02,0-.03,0-.08,0-.17,0-.25,0,0,0-.01,0-.02,0-.08,0-.17-.01-.25-.02,0,0-.02,0-.02,0-.08,0-.16-.02-.24-.03-.01,0-.02,0-.04,0-.08-.01-.15-.02-.22-.04-.02,0-.03,0-.05-.01-.07-.01-.14-.03-.21-.05-.02,0-.04-.01-.06-.02-.07-.02-.13-.04-.19-.05-.02,0-.04-.01-.07-.02-.06-.02-.12-.04-.19-.06-.02,0-.04-.02-.06-.02-.06-.02-.13-.05-.19-.07-.01,0-.02,0-.03-.01-1.01-.43-1.87-1.17-2.45-2.09-.01-.02-.02-.04-.04-.06-.02-.04-.05-.08-.07-.12-.02-.04-.05-.08-.07-.12-.01-.02-.02-.04-.03-.06-.03-.06-.06-.12-.09-.19,0,0,0,0,0,0-.29-.62-.47-1.3-.51-1.99,0-.06,0-.11,0-.17-.02-.81.14-1.65.5-2.43L18.33,0h-.96l-8.64,18.42Z"/></svg>