<svg xmlns="http://www.w3.org/2000/svg" xmlns:xlink="http://www.w3.org/1999/xlink" version="1.1" width="89.0836pt" height="24.331658pt" viewBox="0 0 89.0836 24.331658">
<defs>
<clipPath id="clip_0">
<path transform="matrix(1,0,0,-1,-40.6335,83.11166)" d="M40.6335 58.78H129.7171V83.11166H40.6335Z" fill-rule="evenodd"/>
</clipPath>
<clipPath id="clip_1">
<path transform="matrix(1,0,0,-1,-40.6335,83.11166)" d="M0 141.732H170.079V0H0Z"/>
</clipPath>
</defs>
<g>
<g clip-path="url(#clip_0)">
<g id="layer_1" data-name="Layer 1">
</g>
<g id="layer_1" data-name="guidi">
</g>
<g id="layer_1" data-name="Layer 3">
</g>
<g id="layer_1" data-name="Layer 2">
<path transform="matrix(1,0,0,-1,25.692002,3.629959)" d="M0 0 .003 .005 .008 .014Z" fill="#e12219"/>
<g clip-path="url(#clip_1)">
<path transform="matrix(1,0,0,-1,37.3136,.4044571)" d="M0 0H-8.162C-10.562 0-12.974-.353-14.67-.978-16.563-1.675-18.271-2.725-19.169-5.335-20.094-8.018-23.418-19.093-24.317-20.457-24.29-20.413-23.632-19.358-24.33-20.479-24.836-21.292-25.662-22.913-28.029-22.913H-37.308L-37.307-23.682H-27.777C-25.376-23.682-22.965-23.328-21.269-22.704-19.375-22.007-17.668-20.956-16.769-18.347-15.845-15.664-12.52-4.589-11.621-3.225-11.648-3.269-12.306-4.324-11.609-3.203-11.102-2.39-10.276-.769-7.91-.769H0Z" fill="#e12219"/>
<path transform="matrix(1,0,0,-1,12.993801,20.865357)" d="M0 0 .003 .004-.006-.009Z" fill="#e12219"/>
<path transform="matrix(1,0,0,-1,38.5932,14.892059)" d="M0 0H-8.959V-.782H-4.796V-2.13C-4.796-3.769-4.899-5.002-5.103-5.827-5.308-6.652-5.811-7.373-6.612-7.788-7.307-8.149-7.879-8.43-8.959-8.43V-9.194L-8.955-9.195C-6.849-9.195-4.831-8.551-2.901-7.264-.97-5.977-.005-3.85-.005-.883H0Z" fill="#e12219"/>
<path transform="matrix(1,0,0,-1,5.1907999,9.946159)" d="M0 0C-.068-.156-.138-.308-.22-.435-.375-.676-.54-.87-.71-1.041-1.047-1.332-1.425-1.53-1.828-1.663-2.624-1.858-3.434-1.904-4.248-1.909H-5.185V-1.925-2.674-2.69C-4.057-2.69-2.929-2.666-1.828-2.936-1.425-3.069-1.047-3.266-.71-3.558-.54-3.729-.375-3.923-.22-4.163-.138-4.29-.068-4.443 0-4.599 .269-5.277 .433-6.078 .491-7.258H1.403V-7.182 2.583 2.684H.491C.433 1.505 .269 .679 0 0" fill="#e12219"/>
<path transform="matrix(1,0,0,-1,13.390499,.40455628)" d="M0 0H-13.384V-.755H-7.511C-5.3-.755-3.721-1.111-2.773-1.822-1.825-2.533-1.199-3.693-.895-5.303H0Z" fill="#e12219"/>
<path transform="matrix(1,0,0,-1,88.8058,18.32766)" d="M0 0V2.47 4.94H-.828V4.15C-.989 4.561-1.547 5.044-2.379 5.044-3.718 5.044-4.791 4.089-4.811 2.47-4.791 .851-3.718-.104-2.379-.104-1.547-.104-.989 .379-.828 .79V0ZM-.899 2.47C-.899 2.462-.896 2.457-.896 2.45-.896 1.616-1.319 .567-2.389 .567-3.446 .567-3.908 1.538-3.911 2.47-3.908 3.402-3.446 4.373-2.389 4.373-1.319 4.373-.896 3.323-.896 2.49-.896 2.483-.899 2.477-.899 2.47M-4.922 .025-7.083 2.917-5.185 4.937H-6.25L-7.701 3.243C-7.844 3.079-8.005 2.856-8.127 2.684H-8.149V7.23H-9.041V.025H-8.149V1.871L-7.691 2.39-6.007 .025ZM-12.398 3.719C-12.398 4.083-12.115 4.389-11.586 4.389-11.131 4.389-10.775 4.215-10.582 4.104L-10.369 4.743C-10.632 4.917-11.069 5.049-11.566 5.049-12.611 5.049-13.261 4.399-13.261 3.607-13.261 3.02-12.843 2.542-11.952 2.217-11.302 1.973-11.049 1.74-11.049 1.313-11.049 .898-11.353 .583-11.993 .583-12.439 .583-12.906 .768-13.18 .928L-13.391 .259C-13.047 .056-12.55-.086-12.014-.086-10.867-.086-10.187 .522-10.187 1.396-10.187 2.136-10.632 2.562-11.475 2.876-12.115 3.12-12.398 3.303-12.398 3.719M-12.55 9.547C-12.55 11.041-13.505 12.069-14.919 12.069-16.272 12.069-17.36 11.103-17.36 9.456-17.36 8.072-16.538 7.147-15.427 6.959V7.673C-16.047 7.901-16.453 8.605-16.453 9.487-16.453 10.42-15.997 11.397-14.95 11.397-13.892 11.397-13.474 10.35-13.474 9.515-13.474 8.596-13.908 7.891-14.536 7.668V6.962C-13.514 7.144-12.55 7.953-12.55 9.547M-18.073 11.259C-17.95 11.259-17.86 11.247-17.759 11.237V12.069C-17.84 12.089-17.91 12.099-18.002 12.099-18.601 12.099-19.148 11.683-19.372 11.025H-19.403L-19.443 11.988H-20.223C-20.193 11.531-20.183 11.034-20.183 10.455L-20.193 7.079H-19.3V9.696C-19.3 9.847-19.291 9.989-19.27 10.121-19.148 10.78-18.702 11.259-18.073 11.259M-19.014 5.049C-19.827 5.049-20.393 4.592-20.638 4.136H-20.659L-20.709 4.937H-21.499C-21.469 4.531-21.459 4.124-21.459 3.607V.025H-20.566V2.988C-20.566 3.129-20.546 3.291-20.508 3.404-20.344 3.902-19.888 4.318-19.309 4.318-18.467 4.318-18.173 3.648-18.173 2.856V.025H-17.279V2.958C-17.279 4.643-18.336 5.049-19.014 5.049M-22.875 11.308H-21.596V11.988H-22.875V13.165L-23.747 12.89V11.988H-24.506V11.308H-23.747V8.63C-23.747 8.051-23.644 7.614-23.403 7.341-23.189 7.108-22.856 6.967-22.437 6.967-22.093 6.967-21.819 7.027-21.647 7.089L-21.687 7.768C-21.819 7.727-21.961 7.707-22.205 7.707-22.702 7.707-22.875 8.051-22.875 8.661ZM-24.844 7.079-27.005 9.969-25.108 11.988H-26.174L-27.624 10.295C-27.766 10.132-27.928 9.907-28.05 9.737H-28.07V14.28H-28.964V7.079H-28.07V8.924L-27.613 9.442-25.93 7.079ZM-28.387 5.049C-28.984 5.049-29.533 4.632-29.756 3.971H-29.787L-29.829 4.937H-30.609C-30.579 4.48-30.568 3.983-30.568 3.404L-30.579 .025H-29.686V2.644C-29.686 2.794-29.676 2.938-29.655 3.069-29.533 3.728-29.086 4.206-28.458 4.206-28.336 4.206-28.245 4.196-28.143 4.186V5.017C-28.226 5.039-28.296 5.049-28.387 5.049M-29.966 9.341C-29.965 9.369-29.963 9.397-29.963 9.427-29.963 10.06-30.058 10.559-30.25 10.921-30.443 11.285-30.72 11.567-31.088 11.766-31.454 11.968-31.853 12.069-32.285 12.069-32.981 12.069-33.541 11.848-33.97 11.406-34.398 10.964-34.612 10.326-34.612 9.496-34.612 8.584-34.358 7.909-33.845 7.469-33.42 7.105-32.899 6.922-32.285 6.922-31.603 6.922-31.046 7.145-30.612 7.587-30.358 7.848-30.18 8.169-30.075 8.547H-30.978C-31.045 8.369-31.134 8.215-31.246 8.088-31.526 7.773-31.871 7.616-32.285 7.616-32.706 7.616-33.054 7.771-33.332 8.085-33.61 8.398-33.746 8.869-33.746 9.5-33.746 10.132-33.61 10.604-33.332 10.918-33.054 11.232-32.706 11.389-32.285 11.389-31.868 11.389-31.523 11.232-31.245 10.917-31.055 10.7-30.93 10.401-30.871 10.028H-32.993V9.341H-30.833ZM-36.451 7.079H-35.559003V14.280001H-36.451ZM-36.526 2.43C-36.526 .874-35.487-.104-34.167-.104H-34.156C-32.986-.104-31.716 .692-31.716 2.522-31.716 4.015-32.672 5.044-34.085 5.044-35.438 5.044-36.526 4.078-36.526 2.43M-35.62 2.462C-35.62 3.395-35.163 4.372-34.116 4.372-33.058 4.372-32.641 3.324-32.641 2.49-32.641 1.371-33.282 .568-34.136 .568H-34.146C-35.01 .568-35.62 1.382-35.62 2.462M-37.526 9.341C-37.525 9.369-37.523 9.397-37.523 9.427-37.523 10.06-37.618 10.559-37.81 10.921-38.002 11.285-38.28 11.567-38.647 11.766-39.014 11.968-39.413 12.069-39.845 12.069-40.541 12.069-41.101 11.848-41.53 11.406-41.958 10.964-42.172 10.326-42.172 9.496-42.172 8.584-41.918 7.909-41.405 7.469-40.98 7.105-40.459 6.922-39.845 6.922-39.163 6.922-38.606 7.145-38.172 7.587-37.918 7.848-37.74 8.169-37.635 8.547H-38.538C-38.605 8.369-38.694 8.215-38.806 8.088-39.086 7.773-39.431 7.616-39.845 7.616-40.266 7.616-40.613 7.771-40.892 8.085-41.169 8.398-41.306 8.869-41.306 9.5-41.306 10.132-41.169 10.604-40.892 10.918-40.613 11.232-40.266 11.389-39.845 11.389-39.428 11.389-39.083 11.232-38.805 10.917-38.615 10.7-38.49 10.401-38.431 10.028H-40.553V9.341H-38.393ZM-42.172 2.47C-42.172 1.639-41.959 1.001-41.531 .56-41.102 .118-40.541-.104-39.846-.104-39.414-.104-39.014-.003-38.648 .199-38.282 .398-38.003 .68-37.81 1.044-37.619 1.406-37.524 1.906-37.524 2.54-37.524 2.569-37.525 2.596-37.527 2.625H-38.395-40.554V1.936H-38.432C-38.492 1.563-38.616 1.266-38.806 1.048-39.083 .733-39.429 .577-39.846 .577-40.267 .577-40.615 .733-40.891 1.047-41.17 1.362-41.307 1.833-41.307 2.465-41.307 3.096-41.17 3.568-40.891 3.88-40.615 4.194-40.267 4.349-39.846 4.349-39.432 4.349-39.087 4.192-38.808 3.878-38.695 3.75-38.606 3.596-38.539 3.418H-37.636C-37.742 3.796-37.919 4.117-38.173 4.378-38.606 4.82-39.164 5.044-39.846 5.044-40.46 5.044-40.981 4.86-41.406 4.497-41.918 4.057-42.172 3.381-42.172 2.47M-26.746 4.381C-27.174 3.939-27.389 3.3-27.389 2.47-27.389 1.558-27.133 .882-26.623 .443-26.196 .079-25.676-.104-25.062-.104-24.38-.104-23.822 .119-23.389 .561-23.134 .822-22.958 1.143-22.852 1.522H-23.755C-23.821 1.343-23.911 1.19-24.023 1.061-24.302 .747-24.649 .59-25.062 .59-25.482 .59-25.831 .745-26.107 1.059-26.386 1.372-26.522 1.843-26.522 2.474-26.522 3.106-26.386 3.578-26.107 3.892-25.831 4.207-25.482 4.363-25.062 4.363-24.644 4.363-24.299 4.206-24.021 3.891-23.831 3.674-23.708 3.376-23.648 3.003H-25.769V2.314H-23.609-22.742C-22.741 2.343-22.739 2.371-22.739 2.402-22.739 3.034-22.835 3.533-23.027 3.896-23.219 4.259-23.498 4.541-23.864 4.741-24.229 4.942-24.629 5.044-25.062 5.044-25.757 5.044-26.317 4.822-26.746 4.381M-15.808-1.04C-16.02-1.273-16.366-1.384-16.782-1.414L-16.681-2.116C-16.204-2.116-15.555-1.953-15.158-1.558-14.723-1.111-14.57-.492-14.57 .463V4.937H-15.463V.806C-15.463-.37-15.563-.767-15.808-1.04" fill="#6a747b"/>
</g>
</g>
</g>
</g>
</svg>
